<?xml version="1.0" encoding="utf-8"?>
<!-- Generator: Adobe Illustrator 25.2.0, SVG Export Plug-In . SVG Version: 6.00 Build 0)  -->
<svg version="1.1" xmlns="http://www.w3.org/2000/svg" xmlns:xlink="http://www.w3.org/1999/xlink" x="0px" y="0px"
	 viewBox="0 0 1356.5 738" style="enable-background:new 0 0 1356.5 738;" xml:space="preserve">
<style type="text/css">
	.st0{display:none;}
	.st1{display:inline;fill:#ED2024;}
	.st2{fill:#C4C4C4;}
	.st3{fill:#151565;}
	.st4{fill:#C4C4C4;filter:url(#Adobe_OpacityMaskFilter);}
	.st5{mask:url(#mask0_3_);}
	.st6{fill:#FFFFFF;stroke:#FFFFFF;stroke-width:2;stroke-miterlimit:10;}
	.st7{fill:#FF655B;}
	.st8{fill:#EAEAEA;}
	.st9{fill:none;stroke:#FFFFFF;stroke-width:5;stroke-dasharray:20,20;}
</style>
<g id="Layer_2" class="st0">
	<rect x="-7.3" y="-3.3" class="st1" width="1261.5" height="744.5"/>
</g>
<g id="Layer_1">
	<g>
		<circle class="st2" cx="580.6" cy="369.5" r="319"/>
		<circle class="st3" cx="580.6" cy="369.5" r="319"/>
		<defs>
			<filter id="Adobe_OpacityMaskFilter" filterUnits="userSpaceOnUse" x="260.6" y="49.5" width="640" height="640">
				<feColorMatrix  type="matrix" values="1 0 0 0 0  0 1 0 0 0  0 0 1 0 0  0 0 0 1 0"/>
			</filter>
		</defs>
		<mask maskUnits="userSpaceOnUse" x="260.6" y="49.5" width="640" height="640" id="mask0_3_">
			<circle class="st4" cx="580.6" cy="369.5" r="319"/>
		</mask>
		<g class="st5">
			<path class="st6" d="M394.8,628.6c-0.5-5.8-0.8-9.7-1.2-15.3c4.6,0.7,9.9,1.2,15,2.3c7.5,1.7,10.4-0.1,11.2-7.9
				c0.4-3.9,1.6-8.6,0-11.7c-5-9.9,1.8-14.1,7.9-18.7c9.2-7,10.6-10.5,6.3-21.3c-1-2.6-3.5-4.7-5.7-6.5c-4-3.4-8.3-6.5-12.6-9.5
				c-6-4.2-11.9-8.6-18.3-12.2c-5.2-3-11-4.9-17.8-7.9c-3.7-9.6-12.5-17.5-18.1-17.3c-5.3-4.6-9.2-8-13.2-11.5
				c4.9-10.3-2-18.6-5.3-27.2c-3-8-9-14.2-16.5-19.3c-5.1-3.5-8.5-10.1-11.4-15.9c-4.7-9.2-8-19.1-12.7-28.3
				c-1.2-2.5-5.8-3.1-7.6-5.5c-4-5.5-7.1-11.5-10.8-17.8c-6,1.6-1.8-4.2-2.6-8.8c-4,2.3-7.3,4.2-11.2,6.4
				c-4.1-6.3-5.9-14.4-4.8-23.1c1-7.6,2.3-15.2,3.4-22.8c0.3-2.3,1.1-4.8,0.5-6.9c-2.8-11.2,1.9-21,4.9-31.3
				c3.9-13.4,7.3-26.9,11.4-40.2c1.8-5.9,5-11.5,7.7-17.6c6.4,5.2,4.4,11.3,2.8,16.8c-1.8,6-4.7,11.7-6.8,17.6
				c-0.9,2.5-0.9,5.3-1.4,7.9c0.7,0.2,1.4,0.4,2.1,0.6c2.8-8.1,6.1-16.1,8.4-24.3c2.7-9.2,8.1-16.1,16.6-19.5
				c6.8-2.7,11-6.3,13.3-13.6c2.2-7.3,19.1-17,26.2-16.5c6.6-10.9,8.3-11.6,30.7-13.5c-5.1,2.5-8.7,4.3-12.3,6.1
				c0.3,0.7,0.7,1.4,1,2.1c8.3-2.7,18.5-0.8,24.5-10.2c-1.1-0.4-1.5-0.8-1.9-0.7c-2.9,0.6-5.7,1.2-8.6,1.8c0.5-3.2,0.6-6.5,1.8-9.4
				c1-2.6,3.3-4.6,5.6-7.7c-2.7-0.6-5-1.2-7.3-1.7c-0.2-0.5-0.3-1-0.5-1.5c4.1-1,8.3-3.1,12.3-2.8c7.7,0.6,15.3,2.6,22.1,3.9
				c-4.5,3.9-10.3,9.1-17.3,15.2c6.6,0,7.2,7.2,12.7,7.3c1.8,0,4.3,0.3,5.3-0.7c3.2-3.1,2.7-11.3-0.9-15.5
				c3.5-4.1,6.8-8.7,10.8-12.6c4.6-4.5,2.1-10,2.2-14.9c0.2-4.7-0.7-8.5,4-12.1c3.3-2.6,4.6-7.8,7.6-13.3c-4.6,1.8-7.7,3.1-10.9,4.4
				c-0.5-0.4-1-0.9-1.5-1.3c1.4-2.3,2.7-4.8,4.3-6.9c1-1.3,3.3-1.8,3.6-3.1c0.8-2.7,0.7-5.6,0.9-8.5c-2.5,0.3-5.7-0.3-7.5,1
				c-6.7,4.8-13,10.2-19.4,15.4c-0.7,0.6-1.2,1.4-2,1.9c-10,6.4-20.1,12.8-31.5,20.1c2.5-3.7,3.8-7.4,6.4-9.3
				c8.1-5.7,10.8-14.7,15.6-22.5c2.1-3.4,5.6-6.5,9.1-8.3c9.1-4.7,18.5-8.5,29.6-13.5c-1,3-1.3,4.1-1.8,5.9
				c7.7,3.2,8.9-7.2,15.5-7.5c6.1-0.3,12-4,18-6.2c-1.9-6.7,0.3-8.4,12.8-11.4c-9.8,7.6-9.8,7.6-6.1,11.8
				c-5.9,12-18.7,10.7-28.4,14.5c-0.6,4.8-1.2,9.2-2,15.4c3.4-2.3,5.2-3.6,7.2-4.9c0.3,1.1,0.7,2.1,1.4,4.7
				c4.7-5.5,8.8-10.2,14.2-16.5c-1.2,3.5-1.7,5.2-2.6,7.9c6.6-1.3,11.7-2.6,12.7-10c0.3-2.2,2.7-4.2,4.2-6.2c2.1-2.7,4.3-5.3,6.3-8
				c1.7-2.3,3.3-4.8,5-7.3c-1.6-2.3-3.5-5.3-6.1-9.3c3.7-1,6.5-1.7,10.2-2.7c-0.2,3.7-0.3,6.1-0.5,10.4c3.8-1.7,6.5-2.9,7.4-3.3
				c5.1-0.8,8.5-1.1,11.9-1.8c10.3-2.2,20.6-4.5,30.8-6.8c-8.1-6.1-18.7,2.3-27.6-4.2c7.6-1.1,15.3-2.4,22.9-3.2
				c39.9-4,79.3-0.8,117.8,10.3c10.9,3.2,22.4,6.2,31,14.9c1.6,1.6,3.8,2.8,6,3.5c9.2,3.3,12.9,9.4,10.1,19.4
				c-2.1-0.7-4.1-1.4-5.7-2c3.5,4.4,7.1,9,11.3,14.3c-7,4.2-11,0.1-16.2-3.8c3.1-0.6,5.2-1,7.3-1.4c0.3-0.7,0.5-1.3,0.8-2
				c-3.7-1.9-7.1-4.5-11-5.5c-9.2-2.3-18.6-3.8-27.9-5.6c-5.4-1-12.6,7.5-11.8,12.7c1.1,7.2,3.1,14.4-4.2,20.8
				c-8.1,7.1-3.9,20.7,6.6,23.5c1.9,0.5,5-0.7,6.6-2.2c3.4-3.1,6-2.9,8.8,0.5c3.1,3.7,6.2,7.6,9.7,10.9c1.5,1.4,5.6,2.6,6.2,2
				c1.8-2.1,3.4-5.2,3.6-7.9c0.2-3.7-0.6-7.6-1.6-11.2c-0.6-1.9-2.1-4-3.9-5.1c-5.7-3.7-10.2-7.3-6.3-15.3c0.9-1.8-1-5-1.8-8.5
				c5.4-0.7,8.9,0.7,8.2,6.6c-0.8,7.5,3.9,11.6,8.8,15.4c3.2,2.5,6.7,4.2,10.6,0.4c0.9-0.9,3.4-0.4,5.7-0.6
				c-3.1,3.5-5.3,5.9-7.4,8.3c2.9,1.7,5.9,3.5,8.8,5.2c-0.2,0.5-0.4,1-0.6,1.4c-1.9-0.1-3.8-0.2-7.2-0.4c1.4,3.2,2.3,5.6,3.5,7.9
				c2.5,4.8,0.8,8-4.5,8.1c-0.9,0-2.2-0.4-2.7,0.1c-5.7,5.8-13,2.8-19.3,3.9c0-2.2,0.8-5-0.3-6.5c-0.9-1.2-3.9-1-6.5-1.4
				c-1.1-2.1-2.5-4.7-3.8-7.3c-5.4,3-5.4,3,1.2,18.6c-7,1.6-11.4,5-13.8,12.8c-1.8,5.9-8.4,10.4-13.3,15c-1.2,1.1-4.3,0.2-7,0.2
				c0.3,1.2,0.6,2.6,1,4c-4.2,0.7-8.2,1.3-12.3,1.9c-0.1,0.8-0.1,1.6-0.2,2.3c1.7,0.7,3.3,1.7,5,2.2c8.2,2.5,14.6,11.5,14,20
				c-0.3,5.3-2.6,8.1-8.4,7.8c-7.4-0.5-14.9-0.8-22.3-0.6c-2.7,0.1-5.4,1.7-8.2,2.6c1.4,9.6,4.2,18.3-0.9,27.3
				c-1.2,2,2.5,6.4,2.9,9.9c0.7,5.6,4.6,3.5,7.7,4.4c3.8,1,7.1,3.6,9.6,4.9c6.3-1.1,12-2.4,17.8-3.2c6.9-1.1,13.6-11.5,12.1-18.4
				c-1.3-6.1,2.1-10.4,7.1-13.1c4.4-2.4,6.8-5.2,6-10.5c-0.8-5.4,3.3-5.9,6.8-4.8c5.5,1.6,9.7-0.2,13.1-4.1c4.7-5.5,8.1-2.2,12.2,1
				c5.9,4.6,12.4,8.5,18.7,12.7c4.4,2.9,9.2,5.5,13.2,8.9c1.8,1.5,3.2,5.4,2.5,7.3c-0.7,1.9-4.2,3.2-6.6,4.1
				c-1.9,0.8-4.2,0.6-6.3,0.9c-0.1,0.8-0.3,1.6-0.4,2.4c4.2,1.7,8.4,3.4,13.7,5.4c-1.1-9,10.1-15.7-0.3-24.7c3.6,0,5.5,0,9.4,0
				c-7.4-6.6-16-8-22.3-12.5c-6.2-4.5-14.6-8.4-15.3-18.4c1.4-0.2,2.4-0.7,2.7-0.4c7.2,7.5,16.9,10.3,26.1,14.2
				c5.3,2.3,9.5,5.6,11.1,11.7c0.5,2.1,2.2,4.1,3.7,5.8c4.5,4.9,9.1,9.7,13.8,14.4c1.3,1.3,3,2.3,5,3.6c0.5-4.8,0.9-8.5,1.3-12.8
				c-3.1-2.9-6.8-6.5-10.1-9.7c1.8-1.6,2.9-2.7,4.1-3.7c1.3-1.2,3.1-3.5,4-3.2c2.1,0.7,4.4,2.3,5.4,4.2c2.4,4.8,3.6,10.5,8.6,13.4
				c5.1,3,10.1,9.1,16.7,2.2c0.4-0.4,1.5-0.7,2-0.4c5.9,3.3,9.1,0.3,11.1-6.1c8,10.8,9.8,22.1,10.2,33.7c0.1,1.3-1.3,3.9-2,3.9
				c-9.6,0-15.7,10.9-26.2,7.9c-4.4-1.3-8.9-2.4-13.5-3c-3.2-0.4-7.7-1-9.6,0.7c-2.1,1.9-1.9,6.4-2.5,9.7c-0.5,2.6-0.3,5.5-1.5,7.6
				c-0.4,0.7-4.2,0.1-6.2-0.6c-6.1-2-12.9-2.2-17.5-8.5c-1.5-2-6.5-1.6-9.9-2.1c-3.2-0.4-6.6-0.2-9.7-1c-5.2-1.4-8.5-3.2-6-10.4
				c1.3-3.5-1.7-9.3-4.2-13.2c-1.9-3.1-5.5-2.1-9.2-0.5c-5.1,2.2-11.1,3.4-16.7,3.3c-11.6-0.1-21.8,2.1-31.1,9.6
				c-7.1,5.8-16.5,5.3-24.1,2c-7.1-3-8.9,0.6-9.7,5.2c-0.9,4.9-3.9,7-7.7,9.1c-8.8,4.7-11.4,12.9-11.7,22.1
				c-0.2,8.1-6.4,13.1-11.9,15c-10.6,3.7-14.6,12.5-19.8,20.5c-6.7,10.3-12.8,21-18.8,31c10.8,15.5,4,29.4-1.6,43.1
				c-1.3,3.3-2.8,5.4-0.2,8.6c1.1,1.4,1,3.8,1.3,5.7c0.3,1.8,0,4.1,1,5.3c4.4,5.2,9.2,10,13.8,15c3.1,3.4,7.5,6.5,8.7,10.5
				c2.7,9.4,9.5,13.7,17.3,17.7c3.1,1.6,6,3.5,8.7,5.6c6.9,5.6,14.2,6.4,22.9,4.4c8.7-2,17.8-1.6,26.7-2.9c4.5-0.6,8.8-2.5,13.1-4
				c9-3,17.8-6.5,26.9-8.9c5.6-1.5,10.4,0.3,13,6.6c0.7,1.6,5.2,3.2,7,2.5c20.1-7.4,20.3,2.3,16.7,16.4c-0.9,3.6-2.2,7.2-3.8,10.5
				c-2.4,4.7-1.2,8.3,2.9,10.8c11.4,7.1,11.2,17.9,12.7,29.8c2,15.1-11.1,20-15.2,30.6c-2.4,6.2-4.3,11.3-2.2,17.9
				c1,3.1-0.2,6.9-0.4,10.4c-0.3,3.8-0.8,7.6-0.8,11.4c0,5.6-3.1,9.2-7.6,11.5c-25.5,13-52.5,21.9-80.6,27.1
				c-65.6,12.1-129.1,4.9-190.2-22.2C430,651.7,410.8,640.8,394.8,628.6z M588.1,67.7c-20.5-7.2-41.7-4.1-63.5,2.1
				c3.7,5.9-5.9,18.3-15.8,22.5c0.5,1.2,1.1,2.3,1.7,3.6c-13.2,2.3-17.7,11.1-23.2,22.5c-1.8,3.7,1.4,13,4.9,14.9
				c0.9,0.5,2.6,0.7,3.3,0.2c7-5.1,13.9-10.5,20.9-15.5c2.6-1.9,5.5-3.6,8.6-4.7c3-1,6.4-0.9,9.5-1.7c9.6-2.6,19-5.7,28.6-8
				c11.4-2.8,11.9-3.2,9.4-13.8c10.1-2.2,12.4-4.3,13.4-11.7C586.3,74.8,587.2,71.6,588.1,67.7z M617.2,159
				c5.7,5.8,11.8,12,18.4,18.8c-3,1.1-4.9,1.8-5.8,2.2c-0.4,3.5-0.7,6.2-1.1,9.2c1.5,0.5,3.6,1.3,5.9,2.1c-2.7,2.4-5,4.4-7.7,6.8
				c9.8-2.1,18.8-3.9,27.3-5.7c-0.1-2-0.1-3.6-0.4-5.1c-0.3-1.6-0.5-3.6-1.5-4.7c-4.6-4.6-9.4-8.9-14.1-13.4c-2-1.9-3.9-3.8-6-5.8
				c0.4-1,0.7-1.9,1-2.7c0.3-1.1,0.4-2.1,0.6-3C628.2,155,623.1,148.9,617.2,159z M607.2,190.5c4.2-1.7,10.3-2.3,13-5.6
				c2.5-3.1,1.5-9.1,2-13.8c-3.1-0.2-6.8-1.4-9.2-0.2c-2.9,1.5-5.5,4.8-6.6,7.9C605.5,181.7,606.8,185.3,607.2,190.5z M565.8,116.9
				c0.2,5.9,2.4,11.5,11.4,10.1c3.2-0.5,6.5-1.2,9.3-2.7c1.8-1,2.8-3.5,4.1-5.4c-2.2-1.2-4.5-3.4-6.7-3.4
				C577.9,115.5,572,116.3,565.8,116.9z M296.7,338c-2.3-5.7-4.5-11.4-6.8-17.1C284.9,332.1,284.9,332.1,296.7,338z M283.6,315.4
				c0.6-0.1,1.3-0.2,1.9-0.3c1.9-9.9-1.2-28.8-4.8-30.6C281.7,294.7,282.6,305,283.6,315.4z M637.6,74.7c-4.8-2.4-9.4-7.9-17.2-2.6
				c5,2.8,9.5,5.3,13.4,7.5C635,77.9,636.2,76.5,637.6,74.7z"/>
			<path class="st6" d="M881.3,389.8c14.2-33.9,18.5-66,4.7-98.5c-0.8,0-1.6-0.1-2.4-0.1c0,3.6,0,7.2,0,11.4
				c-13.3-12.7-18-20.8-15.9-25.3c2.6,3,5.5,6.2,9.1,10.3c2.3-3.5,3.2-4.9,4.1-6.2c1.9,0.6,3.9,1.1,7.3,2.1
				c23.1,89.5,11.5,175.1-36.9,255.4c-0.6-0.2-1.3-0.3-1.9-0.5c5.8-17.4,11.4-34.9,17.6-52.2c8-22.1,19.3-43.1,23-66.7
				c1.9-12.3,3.2-24.6,4.8-37c-0.7-0.1-1.3-0.3-2-0.4c-2.8,5.7-5.7,11.4-8.6,17.2c-1.2-0.5-2.2-0.5-2.5-1
				c-5.4-9.8-10.6-19.8-16.1-29.6c-5.1-9.1-10.7-18-15.7-27.2c-5-9.1-9.6-18.4-15.1-29.2c3,1,6.6,1,7.9,2.7
				c7.2,9.5,16.1,18,19.3,30.2c0.7,2.9,3.8,5.1,5.6,7.7c5.1,7.3,9.6,14.8,10.1,24.2C877.9,380.8,879.6,384.3,881.3,389.8z"/>
			<path class="st6" d="M264,418c-0.8-24.5-1.6-49-2.4-73.6c0.6,0,1.3,0,1.9-0.1c0,6.7-0.1,13.5,0,20.2c0.1,2.8-0.1,5.8,1,8.3
				c6.6,14.8,4.1,29.8,2,44.9C265.7,417.9,264.8,417.9,264,418z"/>
			<path class="st6" d="M818,579.3c5.5-6.6,11-13.2,16.6-19.8c0.5,0.4,1,0.8,1.5,1.2c-5.4,6.7-10.8,13.5-16.2,20.2
				C819.2,580.3,818.6,579.8,818,579.3z"/>
		</g>
		<path class="st7" d="M391.6,364c2.1,0,3.8-1.7,3.8-3.8s-1.7-3.8-3.8-3.8s-3.8,1.7-3.8,3.8S389.5,364,391.6,364z"/>
		<path class="st7" d="M391.6,341.5c-5.3,0-10.3,2.1-14.1,5.8c-3.7,3.7-5.9,8.7-5.9,14c0,13.7,17.6,29,18.4,29.6
			c0.5,0.4,1,0.6,1.6,0.6s1.2-0.2,1.6-0.6c0.9-0.7,18.4-15.9,18.4-29.6c-0.1-5.3-2.2-10.3-5.9-14
			C401.9,343.6,396.9,341.5,391.6,341.5z M391.6,369c-1.7,0-3.4-0.5-4.9-1.5c-1.4-1-2.6-2.3-3.2-3.9c-0.7-1.6-0.8-3.4-0.5-5.1
			c0.3-1.7,1.2-3.3,2.4-4.5c1.2-1.2,2.8-2.1,4.5-2.4c1.7-0.3,3.5-0.2,5.1,0.5c1.6,0.7,3,1.8,3.9,3.2c1,1.4,1.5,3.1,1.5,4.9
			c0,2.3-0.9,4.5-2.6,6.2C396.1,368.1,393.9,369,391.6,369z"/>
		<g>
			<ellipse class="st8" cx="391.1" cy="400.5" rx="16.5" ry="4"/>
		</g>
		<path class="st7" d="M640.6,574c2.1,0,3.8-1.7,3.8-3.8s-1.7-3.8-3.8-3.8s-3.8,1.7-3.8,3.8S638.5,574,640.6,574z"/>
		<path class="st7" d="M640.6,551.5c-5.3,0-10.3,2.1-14.1,5.8s-5.9,8.7-5.9,14c0,13.7,17.6,29,18.4,29.6c0.5,0.4,1,0.6,1.6,0.6
			s1.2-0.2,1.6-0.6c0.9-0.7,18.4-15.9,18.4-29.6c-0.1-5.3-2.2-10.3-5.9-14S645.9,551.5,640.6,551.5z M640.6,579
			c-1.7,0-3.4-0.5-4.9-1.5c-1.4-1-2.6-2.3-3.2-3.9c-0.7-1.6-0.8-3.4-0.5-5.1c0.3-1.7,1.2-3.3,2.4-4.5c1.2-1.2,2.8-2.1,4.5-2.4
			c1.7-0.3,3.5-0.2,5.1,0.5c1.6,0.7,3,1.8,3.9,3.2c1,1.4,1.5,3.1,1.5,4.9c0,2.3-0.9,4.5-2.6,6.2S642.9,579,640.6,579z"/>
		<g>
			<ellipse class="st8" cx="640.1" cy="610.5" rx="16.5" ry="4"/>
		</g>
		<path class="st7" d="M561.6,195c2.1,0,3.8-1.7,3.8-3.8s-1.7-3.8-3.8-3.8s-3.8,1.7-3.8,3.8S559.5,195,561.6,195z"/>
		<path class="st7" d="M561.6,172.5c-5.3,0-10.3,2.1-14.1,5.8c-3.7,3.7-5.9,8.7-5.9,14c0,13.7,17.6,29,18.4,29.6
			c0.5,0.4,1,0.6,1.6,0.6s1.2-0.2,1.6-0.6c0.9-0.6,18.4-15.9,18.4-29.6c-0.1-5.3-2.2-10.3-5.9-14
			C571.9,174.6,566.9,172.5,561.6,172.5z M561.6,200c-1.7,0-3.4-0.5-4.9-1.5c-1.4-1-2.6-2.3-3.2-3.9c-0.7-1.6-0.8-3.4-0.5-5.1
			c0.3-1.7,1.2-3.3,2.4-4.5c1.2-1.2,2.8-2.1,4.5-2.4c1.7-0.3,3.5-0.2,5.1,0.5c1.6,0.7,3,1.8,3.9,3.2c1,1.4,1.5,3.1,1.5,4.9
			c0,2.3-0.9,4.5-2.6,6.2C566.1,199.1,563.9,200,561.6,200z"/>
		<g>
			<ellipse class="st8" cx="561.1" cy="231.5" rx="16.5" ry="4"/>
		</g>
		<circle class="st9" cx="581.1" cy="369" r="343.5"/>
		<ellipse class="st9" cx="580.6" cy="369" rx="380" ry="371.5"/>
		<ellipse class="st9" cx="581.2" cy="369" rx="408.6" ry="399.5"/>
		<ellipse class="st9" cx="580.9" cy="369" rx="437.3" ry="427.5"/>
		<ellipse class="st9" cx="580.5" cy="369" rx="465.9" ry="455.5"/>
		<ellipse class="st9" cx="581.1" cy="369" rx="494.6" ry="483.5"/>
		<ellipse class="st9" cx="580.8" cy="369" rx="523.2" ry="511.5"/>
		<ellipse class="st9" cx="581.4" cy="369" rx="551.8" ry="539.5"/>
		<ellipse class="st9" cx="581.1" cy="369" rx="580.5" ry="567.5"/>
		<ellipse class="st9" cx="580.7" cy="369" rx="609.1" ry="595.5"/>
		<ellipse class="st9" cx="581.3" cy="369" rx="637.8" ry="623.5"/>
		<ellipse class="st9" cx="581" cy="369" rx="666.4" ry="651.5"/>
	</g>
</g>
</svg>
