<?xml version="1.0" encoding="utf-8"?>
<!-- Generator: Adobe Illustrator 25.2.0, SVG Export Plug-In . SVG Version: 6.00 Build 0)  -->
<svg version="1.1" id="Layer_1" xmlns="http://www.w3.org/2000/svg" xmlns:xlink="http://www.w3.org/1999/xlink" x="0px" y="0px"
	 viewBox="0 0 451 451" style="enable-background:new 0 0 451 451;" xml:space="preserve">
<style type="text/css">
	.st0{fill:#C4C4C4;filter:url(#Adobe_OpacityMaskFilter);}
	.st1{mask:url(#mask0_2_);}
	.st2{fill:#2A232B;}
	.st3{fill:#EBAA82;}
	.st4{fill:#FAC5A3;}
	.st5{fill:#DC9164;}
	.st6{fill:none;stroke:#BD6630;stroke-width:4.5;}
	.st7{fill:url(#SVGID_1_);}
	.st8{fill:#F3F1F3;}
	.st9{fill:#131111;}
	.st10{fill:#F3F1F4;}
	.st11{fill:#CFC8D7;}
	.st12{fill:#E1E0E1;}
	.st13{fill:#880082;}
	.st14{fill:#790073;}
	.st15{fill:#690065;}
	.st16{fill:#970F91;}
	.st17{fill:#5A0056;}
	.st18{fill:#EBAA82;stroke:#BD6630;stroke-width:4.5;}
	.st19{fill:#BD6630;}
	.st20{fill:#E39D72;}
	.st21{fill:url(#SVGID_2_);}
	.st22{fill:url(#SVGID_3_);}
	.st23{fill:#EA2E2E;}
	.st24{fill:#F09330;}
	.st25{fill:#64398E;}
	.st26{fill:#393B97;}
	.st27{fill:#00AA4F;}
	.st28{fill:#9C2D91;}
	.st29{fill:#9B328D;}
	.st30{fill:#FDE92B;}
	.st31{fill:#65378F;}
	.st32{fill:#EC9236;}
	.st33{opacity:0.3;enable-background:new    ;}
	.st34{opacity:0.6;fill:#FFFFFF;enable-background:new    ;}
	.st35{opacity:0.9;fill:#FFFFFF;enable-background:new    ;}
	.st36{fill:url(#SVGID_4_);}
	.st37{fill:url(#SVGID_5_);}
	.st38{fill:url(#SVGID_6_);}
	.st39{fill:url(#SVGID_7_);}
	.st40{fill:url(#SVGID_8_);}
	.st41{fill:url(#SVGID_9_);}
	.st42{fill:url(#SVGID_10_);}
	.st43{fill:#1B141C;}
	.st44{fill:#3A353A;}
	.st45{fill:url(#SVGID_11_);}
	.st46{fill:url(#SVGID_12_);}
	.st47{fill:#26120B;}
	.st48{fill:#351D15;}
	.st49{fill:#452B22;}
	.st50{fill:#151371;}
	.st51{fill:#FFFFFF;}
</style>
<defs>
	<filter id="Adobe_OpacityMaskFilter" filterUnits="userSpaceOnUse" x="70.5" y="31.8" width="310" height="387.4">
		<feColorMatrix  type="matrix" values="1 0 0 0 0  0 1 0 0 0  0 0 1 0 0  0 0 0 1 0"/>
	</filter>
</defs>
<mask maskUnits="userSpaceOnUse" x="70.5" y="31.8" width="310" height="387.4" id="mask0_2_">
	<circle class="st0" cx="216.9" cy="223.5" r="191.4"/>
</mask>
<g class="st1">
	<path class="st2" d="M226.3,210.8h-1.5v-1.5h1.5V210.8z"/>
	<path class="st3" d="M369.4,360.6c-3.3-7.2-12.4-17.8-22.4-20.7c-12.4-3.6-40.5-8-50.9-10.4c-8.3-2-25.1-17-31-22.1
		c-1.1-0.9-1.9-2.8-1.9-4.2c-0.2-16.4,6.3-59.9,6.3-59.9h-44h-44c0,0,6.5,43.5,6.3,59.9c0,1.4-0.9,3.3-1.9,4.2
		c-5.9,5.1-22.7,20.1-31,22.1c-10.4,2.4-38.5,7-50.9,10.6c-10.1,2.9-19.1,13.4-22.4,20.6c-5.6,12.1-6.9,33.9-6.9,52.8h150.9h150.9
		C376.4,394.5,375,372.6,369.4,360.6z"/>
	<path class="st4" d="M314.7,336.8c36.7,5.3,52.2,13.1,57,76.5h4.6c0-18.9-1.3-40.7-6.9-52.8c-3.3-7.2-12.4-17.8-22.4-20.7
		c-12.4-3.6-40.5-8-50.9-10.4c-8.3-2-27.5-18.2-32.7-24.7c5.1,7.1,19.3,23.5,31.8,27.8C301.2,334.7,306.2,335.6,314.7,336.8z
		 M155.8,332.6c12.5-4.3,26.7-20.8,31.8-27.8c-5.1,6.5-24.3,22.7-32.7,24.7c-10.4,2.4-38.5,7-50.9,10.6
		c-10.1,2.9-19.1,13.4-22.4,20.6c-5.6,12.1-6.9,33.9-6.9,52.8h4.6c4.8-63,20.3-71.2,57-76.5C144.8,335.6,149.8,334.7,155.8,332.6z"
		/>
	<path class="st5" d="M218.9,357.3c0,0-7.7-2.4-10.7-3.6c-15.8-6-67-10-67-10s53.9,2.1,65.8,4.2c-0.7-7.2-4.6-30.2-4.6-30.2
		s7.8,25.4,9.7,31.8C213.2,352.9,218.9,357.3,218.9,357.3z M235.2,355.3c-0.1,0.1-0.3,0.3-0.5,0.4
		C234.9,355.6,235.1,355.4,235.2,355.3z M218.9,357.3c0,0,4.4,4.5,6.6,4.6c2.9,0.1,7.3-4.4,9.3-6.2c-1.9,1.4-6.3,2.1-8,2.2
		C224.8,357.9,218.9,357.3,218.9,357.3z M250.6,346c-2.3,0.4-6.6,1.2-6.6,1.2l3.4-22.5c-1,4.6-6.7,24.5-12.2,30.6
		c2.9-2.4,9.3-3.6,12.6-4.1c15.4-2.2,15.4-2.2,61.9-7.5C309.7,343.7,265.9,343.5,250.6,346z"/>
	<path class="st6" d="M369.4,360.6c-3.3-7.2-12.4-17.8-22.4-20.7c-12.4-3.6-40.5-8-50.9-10.4c-8.3-2-25.1-17-31-22.1
		c-1.1-0.9-1.9-2.8-1.9-4.2c-0.2-16.4,6.3-59.9,6.3-59.9h-44h-44c0,0,6.5,43.5,6.3,59.9c0,1.4-0.9,3.3-1.9,4.2
		c-5.9,5.1-22.7,20.1-31,22.1c-10.4,2.4-38.5,7-50.9,10.6c-10.1,2.9-19.1,13.4-22.4,20.6c-5.6,12.1-6.9,33.9-6.9,52.8h150.9h150.9
		C376.4,394.5,375,372.6,369.4,360.6z"/>
	
		<linearGradient id="SVGID_1_" gradientUnits="userSpaceOnUse" x1="225.4982" y1="134.861" x2="225.4982" y2="195.206" gradientTransform="matrix(1 0 0 -1 0 452)">
		<stop  offset="0" style="stop-color:#DC9164;stop-opacity:0.8"/>
		<stop  offset="0.7" style="stop-color:#BD6630"/>
	</linearGradient>
	<path class="st7" d="M225.5,316.9c21.3,0,28.7-7.3,36.5-13.9c-0.1-10.2,2.3-30.1,4.1-44.2c-23.6-3.3-57.7-3.3-81.3,0
		c1.9,14.1,4.2,34,4.1,44.2C196.8,309.7,204.2,316.9,225.5,316.9z"/>
	<path class="st8" d="M269,418.2h-87.7v-84.8c33.6,7.1,55.6,6.5,87.7,0L269,418.2L269,418.2z"/>
	<path class="st9" d="M236.7,417.8c-4.2,0-16.2,0.3-24.9-0.3l0-0.3c-1.2-28.1,1.7-46.3,6.8-59.3l0.1-0.2l-0.1-0.1
		c-1.4-1.4-3.7-2.9-6.1-4.6c-2.4-1.6-4.9-3.4-6.5-4.9c0.9-1.1,2.1-2.2,3.5-3.3c0.4-0.2,1.8-1.3,9-7.5c0.3-0.3,0.5-0.4,0.5-0.5
		c1.2-0.3,3.2-0.4,5.6-0.4c3.3,0,7.1,0.3,9.8,0.9c2.4,2.2,5.2,8,6.3,10.8c-1.5,3.5-3.2,4.7-5.6,6.5c-1.2,0.9-2.5,1.8-4,3.2l-0.1,0.1
		l0,0.2c6.1,30.6,6.1,37.8,6.1,44.7c0,3,0,10,0.5,15.1C237.4,417.8,237.1,417.8,236.7,417.8z"/>
	<path d="M241.1,348.1c-1.1-3-4.1-8.9-6.5-11.1c-4.3-0.9-12-1.3-15.8-0.4c-0.2,0.1-9.4,8.1-9.5,7.9c-1.4,1.1-2.7,2.3-3.8,3.6
		c3.1,3.1,10,6.9,12.8,9.7c-5.5,13.8-8,32.6-6.9,59.4c0,0.2,0,0.3,0,0.5c10.2,0.8,25,0.5,26.5,0.3c-1.8-17.1,2.2-15.8-6.6-60.1
		C236,353.7,238.9,353.4,241.1,348.1z M233.2,376.8c0-0.1-0.1-0.2-0.1-0.2c3,15.9,2.1,28.1,4.4,40.7c-7.1-0.5-18.1-0.1-25.3-0.1
		c0.6-10.9,1.8-47.8,7.1-60c0.3-0.1,0.5-0.1,0.8-0.2l-1.6,52.4l4.1-52.9c0,0,0.1,0,0.1,0l2.7,49.2l0.6-49.4c0,0,0.1,0,0.1,0
		l6.3,54.8l-3.5-54.5c0.5,0.1,0.9,0.2,1.4,0.4c0,0,0.1,0,0.2,0C230.8,358.6,232.1,369.8,233.2,376.8z M231.9,355.9
		c-4.2-1.9-9.6-1.5-13.8,0.4c-2.5-2.7-6.2-4.6-11.4-8.1c0.8-0.7,1.9-1.6,3.3-2.7c0.1,0,5.2-4.2,5.3-4.3c1.4-1.3,2.6-2.7,3.8-4
		c4.4-0.2,10.9,0,14.8,0.2c2.3,2.8,4.4,7.1,6,10.5C237.1,352.2,234.2,354.2,231.9,355.9z"/>
	<path class="st10" d="M192.6,380.6c-17.4-60.5-9.5-44.6-14.2-68.4c3.1-7.3,6-15.8,7.6-17.5l0.1-0.1c3.5,36.2,13.5,20.6,35.9,41.8
		C209.2,345,197.4,367.1,192.6,380.6z M272.6,312.2c-2.2-5.6-6.2-13.8-7.9-15.6c2.1,31.2-22.8,25-36.7,39.5
		c13.3,8.6,25.9,31.2,30.4,44.4C278.2,315,267.5,343.8,272.6,312.2z"/>
	<path class="st11" d="M264.4,296c0,7.8-0.6,13.8-1.9,15.6c-3.7,8.8-19.8,14.9-24.7,17.4c-3.8,1.9-7.5,4.2-10.3,7.3
		c5.8,3.7,8.6,5.1,19.5,21.8c6.4,10.7,9.9,18.8,11.4,23.6c20.2-66.9,9.4-37.7,14.5-69.4C270.5,306,265.9,297.4,264.4,296z
		 M269.9,325.4c-3,27.3-5.3,21.9-11.7,51.6c-4.1-13-16.7-34.6-29.3-40.9c5.9-4.5,7.6-4.7,14.7-8c21.7-9.7,22.6-18.7,21.3-30.6
		c1.8,2.1,4.7,9.3,7.1,14.4C270.7,316.7,270.1,323.5,269.9,325.4z M194.1,318.5c-6.7-5.5-4.8-12.3-7.8-24.5
		c-1.4,1.5-4.7,10-8.2,18.2c0.8,4.2,1,11.1,1.1,13.3c0.8,18.4,2.6,19.3,13.3,56.1c4.6-13.4,17.4-36.8,30.5-45.3
		C212.7,326.8,199.5,323.2,194.1,318.5z M202.4,357c-3.4,5.5-6.8,11.3-9.6,20c-6.7-30.6-9.1-25.6-11.7-51.5
		c-0.5-4.5-0.9-9.1-2.1-13.5c2.5-5.4,6-15.5,7.1-16.6c2.1,10.7,0.1,20.3,8.6,25.6c4,3,16.8,8,26.4,15.6
		C215.2,340.1,212.1,342.2,202.4,357z"/>
	<path class="st12" d="M256.2,375.7l-1.8-4c0,0,13.8-42.5,16.2-54.6C271.9,329.7,256.2,375.7,256.2,375.7z M193.6,374l2.2-4.9
		c0,0-12.9-39.9-15.3-52.1C179.1,329.7,193.6,374,193.6,374z"/>
	<path class="st13" d="M262.9,354.3c10.7-31.4,4.2-34,9.5-44.5c0.2-0.4,2.1,1.6,2.3,2.5c2,8.5,80.5,26.2,83,28.1
		c2.2,1.6,8.5,4.7,8.5,4.7c7.4,13.7,11.7,16.1,13.8,52.8c0.2,4.7-0.1,17.8-0.1,21.3l-129.1-1C251.2,406.4,252.7,385.3,262.9,354.3z
		 M188.1,354.3c-10.7-31.4-4.2-34-9.5-44.5c-0.2-0.4-2.1,1.6-2.3,2.5c-2,8.5-80.5,26.2-83,28.1c-2.2,1.6-8.5,4.7-8.5,4.7
		c-7.4,13.7-11.7,16.1-13.8,52.8c-0.2,4.7,0.1,17.8,0.1,21.3l129.1-1C199.8,406.4,198.3,385.3,188.1,354.3z"/>
	<path class="st14" d="M271.2,345.8c-6.9,24.7-16.2,46.9-20.4,72.4c-1.3,0,2.2-34.2,12-63.9c10.7-31.4,4.2-34,9.5-44.5
		c0.1-0.2-0.9,3-0.3,3.7C271.8,325.1,274.7,334.1,271.2,345.8z M179.8,345.8c6.9,24.7,16.2,46.9,20.4,72.4c1.3,0-2.2-34.2-12-63.9
		c-10.7-31.4-4.2-34-9.5-44.5c-0.1-0.2,0.9,3,0.3,3.7C179.2,325.1,176.3,334.1,179.8,345.8z"/>
	<path class="st15" d="M304.6,339.8c0,0-3.4,3.9-13,10.4c8-8.9,11.7-12.4,11.7-12.4L304.6,339.8z M307.9,357.7l-2.3-2.1
		c-6.8,20.8-11.4,31.1-19.4,55.2C297.6,389.3,300.3,381.6,307.9,357.7z M147.7,337.8c0,0,3.7,3.6,11.7,12.4
		c-9.6-6.6-13-10.4-13-10.4L147.7,337.8z M164.8,410.9c-7.9-24.2-12.5-34.5-19.4-55.2l-2.3,2.1C150.7,381.6,153.4,389.3,164.8,410.9
		z"/>
	<path class="st16" d="M345.3,390.1c0-17.5,4.7-27.7,14.5-42.5c0.9,0.6,1.4,0.8,2,1.3C351.4,361.9,349.3,374,345.3,390.1z
		 M287.8,407.2c9.2-25.2,12.2-35,18.3-51.9c-1.7-0.5-13.1-4.5-14.8-5c0.6,1.5,4.7,2.7,11.8,7.1C303.1,357.4,295.4,380.6,287.8,407.2
		z M300.2,337.6c0,0-5.1,6.2-10.1,12.6c5.1-4,8.7-8.5,13.1-12.4c-6-5.1-15.9-12.9-22.2-18.2C286.1,325,300.2,337.6,300.2,337.6z
		 M379.5,419.2l0.4,0c0-3.5,0.3-16.7,0.1-21.3c-2.1-36.6-6.4-39.1-13.8-52.8c0,0-6.3-3.1-8.5-4.7c-2-1.5-58.5-15-79.2-24
		c24.2,16.6,69.8,22.7,83.3,32.5C368.4,353.7,377.2,394.6,379.5,419.2z M89.1,348.9c0.8-0.6,0.9-0.6,1.8-1.1
		c9.8,14.8,14.8,24.8,14.8,42.3C101.7,374,98.9,361.4,89.1,348.9z M147.9,357.4c7.1-4.4,11.2-5.6,11.8-7.1c-1.7,0.5-13.1,4.5-14.8,5
		c6.1,16.8,9,26.7,18.3,51.9C155.6,380.6,147.9,357.4,147.9,357.4z M169.9,319.6c-6.4,5.4-16.2,13.2-22.2,18.2
		c4.4,3.9,8,8.3,13.1,12.4c-5-6.3-10.1-12.6-10.1-12.6S164.9,325,169.9,319.6z M89.2,348.9c13.5-9.9,59.2-16,83.3-32.5
		c-20.7,9-77.2,22.4-79.2,24c-2.2,1.6-8.5,4.7-8.5,4.7c-7.4,13.7-11.7,16.1-13.8,52.8c-0.2,4.7,0.1,17.8,0.1,21.3l0.4,0
		C73.8,394.6,82.6,353.7,89.2,348.9z"/>
	<path class="st17" d="M274.1,310.2c-0.1-0.4-0.7-1-1.1-1c-0.4,0-0.7,0.7-0.9,1.1c-5.4,10.4,0.6,12.6-10,44
		c-10.2,31-11.4,52.6-11.7,64.3l129.5,0.6c0-3.5,0.7-16.7,0.5-21.3c-2.1-36.6-6.5-39.4-14-53.1c0,0-6.6-3.3-8.8-4.9
		c-7.4-5.6-0.9,0-33.2-9.1c-26.5-7.7-27.9-9.9-37.6-12.6c-1.9-0.6-6.1-1.2-10.5-4.3C276,313.7,274.3,311,274.1,310.2z M251.1,417.2
		c5.6-35.6,9.2-44.9,17-71.3c5.3-16.8,2.4-26.3,4.9-34c0.1-0.4,0.7-0.4,0.9,0c3.7,9.4,13.9,11.5,28.4,25.7
		c-8.8,8.8-11,11.1-12.2,12.6c1.3,0.7,8.4,3.4,14.9,5.9c-0.4,1.2-20.2,57.4-20.5,58.1c15.1-32.6,17-42.6,21.5-58.9
		c-1.2-0.9-11.9-4.8-13.7-5.5c6.4-6.7,8.3-8.1,11.4-12c2.4,0-23.9-20.1-25.2-21.4c0.7,0.5,4.2,2.1,4.5,2.2
		c22.1,7.8,4.6,4.3,53.1,18.1c4.6,1.2,11.1,2.4,15.9,2.8c0.3,0,8.1,4.1,12.6,6c-10.8,11.3-17.8,25.8-19.3,44.5
		c4.9-19.1,7.5-29.1,19.8-43.5c11.5,23.3,10.2,19.9,13.9,72C348,417.3,300.3,417,251.1,417.2z M174.6,313.9
		c-4.4,3.1-8.5,3.7-10.5,4.3c-9.6,2.7-11,4.9-37.6,12.6c-32.3,9.1-25.9,3.4-33.2,9.1c-2.2,1.6-8.8,4.9-8.8,4.9
		c-7.4,13.7-11.9,16.4-14,53.1c-0.2,4.7,0.5,17.8,0.5,21.3l129.5-0.6c-0.3-11.8-1.5-33.4-11.7-64.3c-10.7-31.4-4.7-33.6-10-44
		c-0.2-0.4-0.4-1.1-0.9-1.1c-0.4,0-1,0.5-1.1,1C176.7,311,175,313.7,174.6,313.9z M72,418.6c3.7-52.1,2.4-48.7,13.9-72
		c12.4,14.4,15,24.4,19.8,43.5c-1.5-18.7-8.5-33.2-19.3-44.5c4.5-1.9,12.3-6,12.6-6c4.8-0.5,11.3-1.7,15.9-2.8
		c48.5-13.8,31-10.3,53.1-18.1c0.4-0.2,3.8-1.7,4.5-2.2c-1.3,1.3-27.7,21.4-25.2,21.4c3,3.9,4.9,5.4,11.4,12
		c-1.8,0.6-12.5,4.6-13.7,5.5c4.4,16.3,6.4,26.3,21.5,58.9c-0.2-0.8-20.1-57-20.5-58.1c6.5-2.5,13.6-5.2,14.9-5.9
		c-1.1-1.5-3.4-3.9-12.2-12.6c14.5-14.2,24.7-16.3,28.4-25.7c0.2-0.4,0.7-0.4,0.9,0c2.5,7.7-0.4,17.3,4.9,34
		c7.9,26.5,11.4,35.8,17,71.3C150.7,417,103,417.3,72,418.6z"/>
	<path class="st18" d="M145.5,184.7c-2.1-3.7-8.5-12.8-15.1-10.6c-4.1,1.4-5,6-5.6,10.1c-0.9,5.4,0.7,16.1,2.1,20
		c1.3,3.7,5.3,10.9,7.9,13.6c3.2,3.4,7.2,14.1,7.8,15.2c1,1.8,2.3,4.4,6.2,4.1c4.3-0.4,6.9-2.8,8.8-3.2
		C162.5,232.9,150.9,194.4,145.5,184.7z"/>
	<path class="st19" d="M141.3,207.2c-0.2-0.9,0-2.4,0.2-3.8c0.2-1.3,0.4-2.5,0.3-3.4c-0.4-3.2-2.7-9.4-4.2-12.8
		c-1.7-3.9-4.5-8.7-7.9-10c-1.4-0.5-2.4,0.1-2.9,0.7c-0.4,0.5-0.5,1-0.4,1.1c0.1,0.1,0.4-0.4,0.9-0.8c0.4-0.3,0.9-0.6,1.6-0.6
		c-0.3,1.6-1.8,10.4-1.1,16.4c0.5,4.7,2.4,8.2,2.7,8.7c0,0.6,0.1,1.1,0.2,1.6c1.4,6.9,7.5,14.7,9.6,17.2c0.4,0.5,0.8,0.8,0.9,0.6
		c0.1-0.1-0.1-0.6-0.5-1.1c-2.1-2.5-8.1-10.3-9.5-16.9c-1.4-7,3.5-17.4,4.6-19.6c0.6,1,1,2,1.4,2.9c0.3,0.6,0.6,1.4,0.9,2.2
		c-0.6,1.1-5.2,9.5-3.5,16.2c0.6,2.5,3.4,5.7,5.2,6.5c1,0.5,1.4,1.2,1.8,2c0.5,1,1.1,2.1,2.8,2.9c0.3,0.2,0.6,0.2,0.9,0.2
		c0.5,0,0.8-0.2,1.1-0.4c0,0.4,0,1,0,1.5c0,0.6,0.1,1.2,0.2,1.2c0.1,0,0.3-0.5,0.3-1.1c0-0.8,0-1.8-0.1-2.2
		c-0.4-1.4-1.5-2.9-2.7-4.6C142.9,210.2,141.6,208.5,141.3,207.2z M130.4,201.1c-3.3-10.8,1-20.1,1.7-21.5c1.3,1.2,2.4,2.9,3.3,4.5
		C134.8,185.4,130.5,193.8,130.4,201.1z M144.5,216.8c-1.5-0.7-2-1.7-2.5-2.6c-0.4-0.8-0.9-1.7-2.1-2.3c-0.3-0.1-0.5-0.3-0.8-0.5
		c-3.8-9.4,0.4-13.6,1.5-14.4c0.3,1.2,0.6,2.2,0.7,3.1c0.1,0.8-0.1,2-0.3,3.2c-0.2,1.5-0.4,3-0.2,4c0.3,1.5,1.6,3.2,2.8,4.9
		c1.1,1.5,2.2,3,2.6,4.3C146.1,216.7,145.6,217.3,144.5,216.8z"/>
	<path class="st18" d="M305.1,184.7c2.1-3.7,8.5-12.8,15.1-10.6c4.1,1.4,5,6,5.6,10.1c0.9,5.4-0.7,16.1-2.1,20
		c-1.3,3.7-5.3,10.9-7.9,13.6c-3.2,3.4-7.2,14.1-7.8,15.2c-1,1.8-2.3,4.4-6.2,4.1c-4.3-0.4-6.9-2.8-8.8-3.2
		C288.1,232.9,299.7,194.4,305.1,184.7z"/>
	<path class="st19" d="M306.6,211.8c-1.2,1.7-2.4,3.2-2.7,4.6c-0.1,0.5-0.1,1.5-0.1,2.2c0,0.6,0.2,1.2,0.3,1.1
		c0.1,0,0.2-0.5,0.2-1.2c0-0.5,0-1,0-1.5c0.3,0.2,0.6,0.4,1.1,0.4c0.3,0,0.6-0.1,0.9-0.2c1.7-0.8,2.2-1.9,2.8-2.9
		c0.4-0.8,0.8-1.6,1.8-2c1.8-0.9,4.6-4.1,5.2-6.5c1.7-6.7-2.9-15.1-3.5-16.2c0.3-0.8,0.6-1.6,0.9-2.2c0.4-0.8,0.8-1.8,1.4-2.9
		c1.1,2.2,6,12.6,4.6,19.6c-1.4,6.6-7.4,14.4-9.5,16.9c-0.4,0.5-0.6,0.9-0.5,1.1c0.1,0.1,0.5-0.2,0.9-0.6c2.1-2.6,8.2-10.4,9.6-17.2
		c0.1-0.5,0.2-1.1,0.2-1.6c0.3-0.5,2.2-4,2.7-8.7c0.6-6-0.8-14.7-1.1-16.4c0.7-0.1,1.2,0.2,1.6,0.6c0.4,0.4,0.7,0.9,0.9,0.8
		c0.1-0.1,0-0.6-0.4-1.1c-0.5-0.6-1.5-1.2-2.9-0.7c-3.5,1.3-6.2,6.1-7.9,10c-1.5,3.3-3.8,9.5-4.2,12.8c-0.1,0.9,0.1,2.1,0.3,3.4
		c0.2,1.4,0.4,2.9,0.2,3.8C309,208.5,307.7,210.2,306.6,211.8z M315.2,184.1c0.9-1.6,2.1-3.3,3.3-4.5c0.7,1.5,5,10.8,1.7,21.5
		C320.1,193.8,315.8,185.4,315.2,184.1z M304.4,216.5c0.4-1.3,1.5-2.8,2.6-4.3c1.2-1.7,2.5-3.4,2.8-4.9c0.2-1,0-2.5-0.2-4
		c-0.2-1.2-0.3-2.4-0.2-3.2c0.1-0.8,0.3-1.9,0.7-3.1c1,0.8,5.2,5,1.5,14.4c-0.3,0.2-0.6,0.4-0.8,0.5c-1.2,0.6-1.6,1.4-2.1,2.3
		c-0.5,0.9-1,1.9-2.5,2.6C305,217.3,304.5,216.7,304.4,216.5z"/>
	<path class="st3" d="M225.5,60.5c-50.7,0.1-91.9,42-91.8,93.7c0,8.2,1.1,16.2,3,23.7h0c0,0.1,17.4,58.6,21.2,77.8
		c2.1,10.7,14.8,20.4,26,28.3c10.5,7.4,15.9,17.9,41.6,17.9c25.7,0,31.1-10.6,41.6-17.9c11.3-7.9,24-17.5,26-28.3
		c3.7-19.2,21.1-77.7,21.1-77.8h0c2-7.6,3-15.5,3-23.7C317.4,102.5,276.2,60.6,225.5,60.5z"/>
	<path class="st20" d="M296.1,94.2c11.3,15.7,18,35.3,17.9,56.5c0,8.2-1,16.2-2.9,23.7h0c0,0.1-16.8,58.6-20.4,77.8
		c-2,10.7-14.3,20.4-25.1,28.3c-10.1,7.4-15.3,17.9-40.1,17.9c-24.8,0-29.9-10.6-40.1-17.9c-10.9-7.9-23.1-17.5-25.1-28.3
		c-3.6-19.2-20.4-77.7-20.4-77.8c-1.9-7.6-2.9-15.5-2.9-23.7c0-21.2,6.7-40.8,17.9-56.5c-13.3,16.2-21.3,37.1-21.3,59.9
		c0,8.2,1.1,16.2,3,23.7h0c0,0.1,17.4,58.6,21.1,77.8c2.1,10.7,14.8,20.4,26,28.3c10.5,7.4,15.9,17.9,41.6,17.9
		c25.7,0,31.1-10.6,41.6-17.9c11.3-7.9,24-17.5,26-28.3c3.7-19.2,21.1-77.7,21.2-77.8h0c2-7.6,3-15.5,3-23.7
		C317.4,131.3,309.4,110.5,296.1,94.2z"/>
	<path class="st6" d="M225.5,60.5c-50.7,0.1-91.9,42-91.8,93.7c0,8.2,1.1,16.2,3,23.7h0c0,0.1,17.4,58.6,21.2,77.8
		c2.1,10.7,14.8,20.4,26,28.3c10.5,7.4,15.9,17.9,41.6,17.9c25.7,0,31.1-10.6,41.6-17.9c11.3-7.9,24-17.5,26-28.3
		c3.7-19.2,21.1-77.7,21.1-77.8h0c2-7.6,3-15.5,3-23.7C317.4,102.5,276.2,60.6,225.5,60.5z"/>
	
		<linearGradient id="SVGID_2_" gradientUnits="userSpaceOnUse" x1="226.0667" y1="178.613" x2="226.0667" y2="183.139" gradientTransform="matrix(1 0 0 -1 0 452)">
		<stop  offset="0.1" style="stop-color:#E39D72"/>
		<stop  offset="1" style="stop-color:#DC9164"/>
	</linearGradient>
	<path class="st21" d="M219.8,269.2l12.5-0.3C230.9,275.6,220.8,274.7,219.8,269.2z"/>
	<path class="st19" d="M220,269.6c-0.6-0.1-0.5-0.9,0.1-0.8c0.1,0,6.5,0.8,11.9-0.3c0.6-0.1,0.8,0.7,0.2,0.8
		C228,270.2,222.5,270,220,269.6z M225.6,264.3c-2.3,0-4.5-0.8-6.7-1.2c-2.5-0.4-4.9-0.1-7.4,0.2c-2.5,0.2-8,0-9.6-1
		c-0.9-0.6-0.7-1.8,0.3-2.2c0.9-0.3,2.4,0.4,3.3,0.5c4.3,0.8,6.6-0.1,10.4-0.2c5.8-0.2,6.4,2.3,13.7,0.8c7.8-1.6,11.3-0.4,16.9-2.1
		c0.8-0.2,1.7-0.8,2.5-0.4c0.9,0.5,0.9,1.8-0.1,2.2c-5.1,2.3-10.8,1.4-16.5,2.3C230.1,263.6,227.9,264.3,225.6,264.3z"/>
	
		<radialGradient id="SVGID_3_" cx="-2780.8657" cy="2479.0757" r="1" gradientTransform="matrix(-21.1207 0 0 21.1207 -58549.3672 -52172.668)" gradientUnits="userSpaceOnUse">
		<stop  offset="0" style="stop-color:#FFFFFF"/>
		<stop  offset="0.544" style="stop-color:#FDFEFE"/>
		<stop  offset="0.74" style="stop-color:#F6F8F9"/>
		<stop  offset="0.879" style="stop-color:#EAEFF2"/>
		<stop  offset="0.992" style="stop-color:#D9E3E8"/>
		<stop  offset="1" style="stop-color:#D8E2E7"/>
	</radialGradient>
	<path class="st22" d="M193.6,193.8c-6.5,1.1-11.5,1.1-16.1-0.3c-4.7-1.4-10.8-7.3-13-12.8c5.6-0.4,17.1-0.9,22.5-0.2
		c7.1,0.9,14.3,3.6,18.6,7.9c0,0.4-0.1,0.9-0.1,1.3C202,192,197.1,193.2,193.6,193.8z"/>
	<path class="st23" d="M184.5,185.8l-6.7-1.5c-0.1,0.6-0.2,1.3-0.2,2c0,0.7,0.1,1.4,0.2,2l8.8-2L184.5,185.8z"/>
	<path class="st24" d="M179.6,191.9c0.8,1.1,1.9,1.9,3.1,2.5l3.9-8.1L179.6,191.9z"/>
	<path class="st25" d="M186.7,195.3c1.4,0,2.7-0.3,3.9-0.9l-3.9-8.1V195.3z"/>
	<path class="st26" d="M186.7,186.3l7.1,5.6c0.8-1,1.4-2.3,1.7-3.6L186.7,186.3z"/>
	<path class="st27" d="M186.7,186.3l2.8-0.6l6.1-1.4c-0.3-1.3-0.9-2.6-1.7-3.6L186.7,186.3z"/>
	<path d="M190.6,178.1c-1.2-0.6-2.5-0.9-3.9-0.9v9.1L190.6,178.1z"/>
	<path class="st28" d="M182.7,178.1c-1.2,0.6-2.3,1.4-3.1,2.5l7.1,5.6L182.7,178.1z"/>
	<path class="st23" d="M186.7,186.3l8.8,2c0.1-0.6,0.2-1.3,0.2-2c0-0.7-0.1-1.4-0.2-2l-6.1,1.4L186.7,186.3z"/>
	<path class="st29" d="M186.7,186.3l3.9,8.1c1.2-0.6,2.3-1.5,3.1-2.5L186.7,186.3z"/>
	<path class="st30" d="M186.7,186.3l-3.9,8.1c1.2,0.6,2.5,0.9,3.9,0.9V186.3z"/>
	<path class="st27" d="M186.7,186.3l-8.8,2c0.3,1.3,0.9,2.6,1.7,3.6L186.7,186.3z"/>
	<path class="st31" d="M186.7,186.3v-9.1c-1.4,0-2.7,0.3-3.9,0.9L186.7,186.3z"/>
	<path class="st32" d="M186.7,186.3l7.1-5.6c-0.8-1.1-1.9-1.9-3.1-2.5L186.7,186.3z"/>
	<path class="st26" d="M186.7,186.3l-7.1-5.6c-0.8,1-1.4,2.3-1.7,3.6l6.7,1.5L186.7,186.3z"/>
	<path class="st33" d="M186.7,177.2c5,0,9.1,4.1,9.1,9.1c0,5-4.1,9.1-9.1,9.1c-5,0-9.1-4.1-9.1-9.1
		C177.6,181.3,181.7,177.2,186.7,177.2z"/>
	<path d="M190.2,186.3c0,1.9-1.6,3.5-3.5,3.5c-1.9,0-3.5-1.6-3.5-3.5c0-1.9,1.6-3.5,3.5-3.5C188.6,182.7,190.2,184.3,190.2,186.3z"
		/>
	<path class="st34" d="M183.3,192.4c-0.5,0.5-1.4,0.3-2.1-0.4c-0.7-0.7-0.8-1.6-0.4-2.1c0.5-0.5,1.4-0.3,2.1,0.4
		C183.6,191,183.8,191.9,183.3,192.4z"/>
	<path class="st35" d="M193.5,184.6c-0.7,0.7-2.4,0.1-3.8-1.3c-1.4-1.4-2-3.1-1.3-3.8c0.7-0.7,2.4-0.1,3.8,1.3
		C193.6,182.2,194.2,183.9,193.5,184.6z"/>
	<path class="st3" d="M158.8,187.4c0,20.8,12.2,37.7,27.2,37.7c15,0,27.2-16.9,27.2-37.7c0-20.8-12.2-37.7-27.2-37.7
		C171,149.7,158.8,166.6,158.8,187.4z M164.5,180.7c5.6-0.4,17.1-0.9,22.5-0.2c7.5,0.9,15.1,3.9,19.3,8.6c-3.5,2.7-8.9,4.1-12.7,4.7
		c-6.5,1.1-11.5,1.1-16.1-0.3C172.8,192,166.6,186.2,164.5,180.7z"/>
	
		<radialGradient id="SVGID_4_" cx="-2557.6179" cy="2278.2798" r="1" gradientTransform="matrix(28.2131 0.587 0.3687 -17.7242 71505.4766 42067.6016)" gradientUnits="userSpaceOnUse">
		<stop  offset="0" style="stop-color:#DC9164"/>
		<stop  offset="0.7" style="stop-color:#DC9164;stop-opacity:0.3"/>
		<stop  offset="1" style="stop-color:#EBAA82;stop-opacity:0"/>
	</radialGradient>
	<path class="st36" d="M159,185.8c0,12.5,12.8,22.6,28.5,22.5c15.7-0.1,28.4-10.3,28.4-22.8c0-12.5-12.8-22.6-28.5-22.5
		C171.7,163.1,159,173.3,159,185.8z M164.5,180.7c5.6-0.4,17.1-0.9,22.5-0.2c7.5,0.9,15.1,3.9,19.3,8.6c-3.5,2.7-8.9,4.1-12.7,4.7
		c-6.5,1.1-11.5,1.1-16.1-0.3C172.8,192,166.6,186.2,164.5,180.7z"/>
	
		<radialGradient id="SVGID_5_" cx="-2598.0762" cy="2340.2825" r="1" gradientTransform="matrix(45.9451 -2.4081 -2.4081 -45.9451 125184.4375 101496.375)" gradientUnits="userSpaceOnUse">
		<stop  offset="0.95" style="stop-color:#000000;stop-opacity:0"/>
		<stop  offset="1" style="stop-color:#000000;stop-opacity:0.2"/>
	</radialGradient>
	<path class="st37" d="M164.5,180.7c5.6-0.4,17.1-0.9,22.5-0.2c7.5,0.9,15.1,3.9,19.3,8.6c-3.5,2.7-8.9,4.1-12.7,4.7
		c-6.5,1.1-11.6,1.1-16.1-0.3C172.8,192,166.6,186.2,164.5,180.7z"/>
	<path class="st19" d="M176.6,175.5c16-0.7,20.9,2.2,27.7,6.5C193,175.4,178.8,175.4,176.6,175.5z M164.5,186.1
		c4.3,8.3,7.2,7.4,11.4,9.1c0,0-2.3-0.9-4-1.8C167.4,190.9,166.8,189.8,164.5,186.1z"/>
	<path d="M162.8,179.8c4.3,9,7.2,15,21.6,15.2c11,0.2,17.8-0.9,23.5-5.1c-5.1-7.8-11.7-10.2-20.5-11.1
		C178.6,177.9,162.8,179.8,162.8,179.8z M165.9,181.1c5.2-0.4,16-0.8,21-0.2c7,0.9,14.1,3.7,18,8c-3.2,2.6-8.3,3.8-11.8,4.4
		c-6.1,1.1-10.8,1-15-0.3C173.6,191.7,167.9,186.3,165.9,181.1z"/>
	
		<radialGradient id="SVGID_6_" cx="-2527.1333" cy="2292.9243" r="1" gradientTransform="matrix(21.1207 0 0 -21.1207 53640.7617 48615.3164)" gradientUnits="userSpaceOnUse">
		<stop  offset="0" style="stop-color:#FFFFFF"/>
		<stop  offset="0.544" style="stop-color:#FDFEFE"/>
		<stop  offset="0.74" style="stop-color:#F6F8F9"/>
		<stop  offset="0.879" style="stop-color:#EAEFF2"/>
		<stop  offset="0.992" style="stop-color:#D9E3E8"/>
		<stop  offset="1" style="stop-color:#D8E2E7"/>
	</radialGradient>
	<path class="st38" d="M256.8,193.8c6.5,1.1,11.5,1.1,16.1-0.3c4.7-1.4,10.8-7.3,13-12.8c-5.6-0.4-17.1-0.9-22.5-0.2
		c-7.1,0.9-14.3,3.6-18.6,7.9c0,0.4,0.1,0.9,0.1,1.3C248.4,192,253.3,193.2,256.8,193.8z"/>
	<path class="st23" d="M262.2,185.8l-6.7-1.5c-0.1,0.6-0.2,1.3-0.2,2c0,0.7,0.1,1.4,0.2,2l8.8-2L262.2,185.8z"/>
	<path class="st24" d="M257.3,191.9c0.8,1.1,1.9,1.9,3.1,2.5l3.9-8.1L257.3,191.9z"/>
	<path class="st25" d="M264.3,195.3c1.4,0,2.7-0.3,3.9-0.9l-3.9-8.1L264.3,195.3z"/>
	<path class="st26" d="M264.3,186.3l7.1,5.6c0.8-1,1.4-2.3,1.7-3.6L264.3,186.3z"/>
	<path class="st27" d="M264.3,186.3l2.8-0.6l6.1-1.4c-0.3-1.3-0.9-2.6-1.7-3.6L264.3,186.3z"/>
	<path d="M268.3,178.1c-1.2-0.6-2.5-0.9-3.9-0.9v9L268.3,178.1z"/>
	<path class="st28" d="M260.4,178.1c-1.2,0.6-2.3,1.4-3.1,2.5l7.1,5.6L260.4,178.1z"/>
	<path class="st23" d="M264.3,186.3l8.8,2c0.1-0.6,0.2-1.3,0.2-2c0-0.7-0.1-1.4-0.2-2l-6.1,1.4L264.3,186.3z"/>
	<path class="st29" d="M264.3,186.3l3.9,8.1c1.2-0.6,2.3-1.5,3.1-2.5L264.3,186.3z"/>
	<path class="st30" d="M264.3,186.3l-3.9,8.1c1.2,0.6,2.5,0.9,3.9,0.9h0L264.3,186.3z"/>
	<path class="st27" d="M264.3,186.3l-8.8,2c0.3,1.3,0.9,2.6,1.7,3.6L264.3,186.3z"/>
	<path class="st31" d="M264.3,186.3v-9.1c-1.4,0-2.7,0.3-3.9,0.9L264.3,186.3z"/>
	<path class="st32" d="M264.3,186.3l7.1-5.6c-0.8-1.1-1.9-1.9-3.1-2.5L264.3,186.3z"/>
	<path class="st26" d="M264.3,186.3l-7.1-5.6c-0.8,1-1.4,2.3-1.7,3.6l6.7,1.5L264.3,186.3z"/>
	<path class="st33" d="M264.3,177.2c5,0,9.1,4.1,9.1,9.1c0,5-4.1,9.1-9.1,9.1c-5,0-9.1-4.1-9.1-9.1
		C255.3,181.3,259.3,177.2,264.3,177.2z"/>
	<path d="M267.9,186.3c0,1.9-1.6,3.5-3.5,3.5c-1.9,0-3.5-1.6-3.5-3.5c0-1.9,1.6-3.5,3.5-3.5C266.3,182.7,267.9,184.3,267.9,186.3z"
		/>
	<path class="st34" d="M261,192.4c-0.5,0.5-1.4,0.3-2.1-0.4c-0.7-0.7-0.8-1.6-0.4-2.1c0.5-0.5,1.4-0.3,2.1,0.4
		C261.3,191,261.5,191.9,261,192.4z"/>
	<path class="st35" d="M271.2,184.6c-0.7,0.7-2.4,0.1-3.8-1.3c-1.4-1.4-2-3.1-1.3-3.8c0.7-0.7,2.4-0.1,3.8,1.3
		C271.3,182.2,271.9,183.9,271.2,184.6z"/>
	<path class="st3" d="M264.4,149.7c-15,0-27.2,16.9-27.2,37.7s12.2,37.7,27.2,37.7c15,0,27.2-16.9,27.2-37.7
		C291.6,166.6,279.4,149.7,264.4,149.7z M272.9,193.5c-4.6,1.4-9.6,1.4-16.1,0.3c-3.8-0.7-9.2-2-12.7-4.7c4.1-4.7,11.8-7.7,19.3-8.6
		c5.3-0.7,16.9-0.2,22.5,0.2C283.8,186.2,277.6,192,272.9,193.5z"/>
	
		<radialGradient id="SVGID_7_" cx="-2747.4832" cy="2500.0083" r="1" gradientTransform="matrix(-28.2131 0.587 0.3688 17.7242 -78173.8281 -42511.8711)" gradientUnits="userSpaceOnUse">
		<stop  offset="0" style="stop-color:#DC9164"/>
		<stop  offset="0.7" style="stop-color:#DC9164;stop-opacity:0.3"/>
		<stop  offset="1" style="stop-color:#EBAA82;stop-opacity:0"/>
	</radialGradient>
	<path class="st39" d="M263,163c-15.7-0.1-28.5,10-28.5,22.5c0,12.5,12.7,22.7,28.4,22.8c15.7,0.1,28.5-10,28.5-22.5
		C291.4,173.3,278.7,163.1,263,163z M272.9,193.5c-4.6,1.4-9.6,1.4-16.1,0.3c-3.8-0.7-9.2-2-12.7-4.7c4.1-4.7,11.8-7.7,19.3-8.6
		c5.3-0.7,16.9-0.2,22.5,0.2C283.8,186.2,277.6,192,272.9,193.5z"/>
	
		<radialGradient id="SVGID_8_" cx="-2714.3938" cy="2425.6199" r="1" gradientTransform="matrix(-45.9466 -2.408 -2.408 45.9466 -118605.9375 -117757.0625)" gradientUnits="userSpaceOnUse">
		<stop  offset="0.95" style="stop-color:#000000;stop-opacity:0"/>
		<stop  offset="1" style="stop-color:#000000;stop-opacity:0.2"/>
	</radialGradient>
	<path class="st40" d="M285.9,180.7c-5.6-0.4-17.1-0.9-22.5-0.2c-7.5,0.9-15.1,3.9-19.3,8.6c3.5,2.7,8.9,4.1,12.7,4.7
		c6.5,1.1,11.5,1.1,16.1-0.3C277.6,192,283.8,186.2,285.9,180.7z"/>
	<path class="st19" d="M246.2,182c6.8-4.3,11.7-7.2,27.7-6.5C271.6,175.4,257.4,175.4,246.2,182z M278.5,193.5
		c-1.7,0.9-4.1,1.8-4,1.8c4.1-1.8,7.1-0.9,11.4-9.1C283.6,189.8,283,190.9,278.5,193.5z"/>
	<path d="M262.9,178.8c-8.8,0.9-15.4,3.3-20.5,11.1c5.7,4.2,12.5,5.3,23.5,5.1c14.4-0.2,17.3-6.2,21.6-15.2
		C287.6,179.8,271.8,177.9,262.9,178.8z M272.4,193.1c-4.3,1.3-9,1.4-15,0.3c-3.5-0.6-8.6-1.9-11.8-4.4c3.9-4.4,11-7.2,18-8
		c5-0.6,15.7-0.2,21,0.2C282.5,186.3,276.8,191.7,272.4,193.1z"/>
	
		<radialGradient id="SVGID_9_" cx="-2610.6794" cy="2354.218" r="1" gradientTransform="matrix(61.8534 0 0 -61.8534 161704.8906 145847.5469)" gradientUnits="userSpaceOnUse">
		<stop  offset="0" style="stop-color:#FAC5A3;stop-opacity:0.5"/>
		<stop  offset="0.9" style="stop-color:#EBAA82;stop-opacity:0"/>
	</radialGradient>
	<path class="st41" d="M287.4,231.1c0.1,34.1-27.6,61.8-61.8,61.9c-34.2,0.1-61.9-27.6-61.9-61.7c-0.1-34.1,27.6-62,61.8-62
		C259.6,169.2,287.3,197,287.4,231.1z"/>
	
		<radialGradient id="SVGID_10_" cx="-2605.9961" cy="2350.7822" r="1" gradientTransform="matrix(55.8189 0 0 -55.8189 145689.3438 131358.7031)" gradientUnits="userSpaceOnUse">
		<stop  offset="0" style="stop-color:#FAC5A3;stop-opacity:0.5"/>
		<stop  offset="0.9" style="stop-color:#EBAA82;stop-opacity:0"/>
	</radialGradient>
	<path class="st42" d="M282.1,140.6c0,31.2-25.3,56.6-56.6,56.6c-31.2,0-56.6-25.3-56.6-56.6c0-31.2,25.3-56.6,56.6-56.6
		C256.7,84.1,282.1,109.4,282.1,140.6z"/>
	<path class="st2" d="M156.1,171.1c15-15,25.3-8.9,46.1-4.9c1.3,0.2,9.5,2.3,8,5.2c-0.7,1.4-3.1,1.2-4.4,1.2
		C185.2,172.2,175.2,157.5,156.1,171.1z"/>
	<path class="st2" d="M294.9,171.1c-15-15-25.3-8.9-46.1-4.9c-1.3,0.2-9.5,2.3-8,5.2c0.7,1.4,3.1,1.2,4.4,1.2
		C265.8,172.2,275.8,157.5,294.9,171.1z"/>
	<path class="st5" d="M226.6,241.5c-0.5,0.2-1.8,0.2-2.2-0.2c0,0-9.5-3.2-8.3-6.4c1.9-4.9,19.2-1.1,19.2,0
		C235.3,237.9,226.6,241.5,226.6,241.5z"/>
	<path class="st19" d="M213.8,230.6c0,0,8.2-28.1,9.1-34.1c1.6,9.8-2.3,31.5-2.7,35.9c-0.5,5.4,5.2,8.6,5.2,8.6
		c0.4,0.6-0.1,0.9-0.8,0.7l-10-3.9C212.2,235.8,212.2,233.8,213.8,230.6z M230.3,235.5c1.4,0.3,1.7,0.9,1.6,1.4
		c-0.1,0.6-0.7,1.4-1.9,0.6c-1.4-0.8-4-1.2-4-1.2S228.9,235.2,230.3,235.5z"/>
	<path class="st2" d="M302.1,193c-4.6,2.6-8,4.4-10.8,6.4c-17.1,11.4-18.8,38-21.8,63.2c-9-15.8-7.6-18.5-19.4-20.9
		c-14.5-3.2-19.3-4.6-24.6,2.4c-4.1-4.2-5.6-6.4-15.5-4.2c-17.7,3.5-18.5,3-23.8,14.3c-0.4,0.9-4.3,7.5-4.7,8.4
		c-0.9-6,0.1-6.2-2.4-19.4c-2.6-13.7-3.7-24.5-10.5-35.2c-6.5-9.1-20.8-15.9-27.8-18.3c0,11.5,1.1,28.6,1.3,30.8
		c2.6,26.9,13.2,69,31.9,86.7c15.7,14.2,33.2,13.2,51.5,13.2c9.4,0,27.2,0.6,38.1-4.6c14.7-5.7,25-21.8,30.8-36.5
		c10.1-24.8,15.7-49.6,15.7-89.6C304.8,191.8,303.7,192,302.1,193z M231.5,282.7c0.2-1,0.7-2.6,1-3c1.6-3.4,9-13.4,9.8-14.2
		c-9.8,2.9-21.2,3.2-33.3,0.4c2.9,3.4,9.6,12.3,10.4,16.7c-10.7-4.6-24.6-6.7-23.2-18.2c0.8-8.4,10.4-8.7,16.7-9.1
		c25.3-0.5,40.6-1.8,41.7,9.1C256.1,275.9,242.4,278.1,231.5,282.7z"/>
	<path class="st43" d="M310.1,189.8c0,40-5.6,64.8-15.7,89.6c-5.8,14.7-16,30.8-30.8,36.5c-10.8,5.3-28.7,4.6-38.1,4.6
		c-18.3,0-35.8,1-51.5-13.2c-18.8-17.7-29.3-59.7-31.9-86.7c-0.2-2.2-1.3-19.4-1.3-30.8c1.5,0.5,3.3,1.2,5.3,2.1
		c10,45.1,12.5,107.5,62.7,125.2c-1.5-3-6-9.1-6-9.1s9.1,6,13.6,9.1c0-1.5-1.5-7.4-1.5-7.4s7.2,5.2,11.7,6.7c0-1.5-1.5-6.2-1.5-6.2
		l7.9,5.2l12-10.4c0,0-3.8,7.9-5.3,10.9c5.4-1.5,14.3-8,14.3-8s-1.5,4.6-1.5,6.1c44.1-24.8,44.1-77.2,50.7-121.8
		C304.6,191.8,306.2,191.3,310.1,189.8z M209,266c0.4,0.5,0.9,1.1,1.5,1.8c9.7,6.1,20.6,5.9,29.9,0.1c1-1.3,1.7-2.2,1.9-2.4
		C232.5,268.5,221,268.8,209,266z M226.6,312.4c-0.6-1.1-1.4-2.6-1.7-3.9c0,0-0.5-1.9-0.5-1.9c0-0.1-0.6-3.8-0.5-3.8
		c-0.1-2-0.4-4.7-0.5-6.2C222.3,306.8,224,309.2,226.6,312.4z M232.1,273.9c0,0,0,0.2,0,0.4c-0.5,2.2-4,6.6-4.4,9.2
		C227.5,279.1,231.9,275.4,232.1,273.9z M263.4,268.5c2.1,4.9,0.4,8.4-1.9,13.2C263.4,274.8,264.4,273.1,263.4,268.5z M255.1,253.8
		c2.2,3.3,3,3.9,5.7,14C258.3,262.2,258,260.7,255.1,253.8z M257.4,249.6c3,2.5,5,4.7,7.2,12.8C261.8,256.4,260,252.9,257.4,249.6z
		 M231.4,307.7c0.8-9,3.5-14,9.4-20.7C236.4,293.8,233.6,300,231.4,307.7z M240.8,304.3c3.2-5,6.7-12.9,13.2-14.7
		c-2.3,1.1-3.4,2.4-5.6,4.9c0,0-1.1,1.3-2.8,3.8C244.4,300.1,242.3,302.8,240.8,304.3z M247.2,310.7c3.7-5.7,3.4-7.4,7.2-10.9
		C250.9,304.6,251.1,306.8,247.2,310.7z M244.6,292.2c1.9-6.1,4.9-11.6,10.9-14.7C250.9,281.1,247.3,287.1,244.6,292.2z
		 M229.1,296.4c-1.4-4.4-0.5-8.3,0.4-12.8C229.2,289.4,228.5,292.5,229.1,296.4z M273.6,288.8c-4.3,5.8-8.3,8.6-13.6,10.6
		C265,296.5,267.1,294.5,273.6,288.8z M280,271.1c-2.3,11-10.9,18-20.7,23.4c10.4-8.5,14.3-13.4,14.3-13.4
		C275.7,278.7,278.4,274.9,280,271.1z M271,280.5c-0.1-9.5,1.6-15.1,6.8-23.4C274.5,265.2,272.2,273.7,271,280.5z M289.4,241.7
		c-0.1,4,0,11.5-10.6,26c0-0.1,7.3-15.9,7.2-15.9C288.1,247,288.6,245.2,289.4,241.7z M277.7,249.6c-0.2-8.3,1.9-9.9,5.3-19.2
		C281.3,239.2,279.1,240.7,277.7,249.6z M295.8,211.5c-1.8,10.5-3.8,13.2-10.9,28.7C287.9,227.3,291.1,224,295.8,211.5z
		 M189.5,281.7c-2.4-5-4-8.1-1.9-13.2c-0.4,1.8-0.7,2.6,0,6.7C187.6,275.1,189.5,281.7,189.5,281.7z M190.2,267.7
		c2.3-9.5,4.2-11.7,5.7-14C191.9,262.9,193.8,260.1,190.2,267.7z M186.5,262.4c1.7-7.2,3.8-9.9,7.2-12.8
		C190.5,253.3,188.9,257.2,186.5,262.4z M210.2,287c6.6,7.2,8.5,12.8,9.4,20.7C217.5,299.9,214.8,294.4,210.2,287z M197,289.6
		c2.2,0.6,4.1,1.6,6.3,4.3c0,0,2,2.1,5.4,8.1c0.8,1.3,1.4,2.3,1.4,2.3c-1.9-2-7.7-9.8-7.7-9.8C199.8,291.3,199,290.6,197,289.6z
		 M195.1,299.8c4.1,3.9,3.7,5.7,7.2,10.9C198.5,306.9,198.5,304.4,195.1,299.8z M195.5,277.5c2.9,1.5,4.6,3,5.6,4.4
		c0,0,0.7,0.9,1.3,1.8c2.3,3.6,2.8,4.7,4,8.5c-1.1-2.1-1.7-3.2-4.8-7.9c-0.6-0.9-1.3-1.8-1.3-1.8C198.5,280,196.9,278.6,195.5,277.5
		z M221.5,283.6c1,5.2,0.6,6.7-0.4,9.8C221.7,289.7,221.7,290.1,221.5,283.6z M220.8,274.5c1.5,1.1,3.2,2.5,4.3,5.9
		c0,0,2,4.9,0.6,11.9C225.8,290,225.5,279.5,220.8,274.5z M191,299.4c-5.8-2-9.8-5.7-13.6-10.6C182.4,293.3,185.6,296.1,191,299.4z
		 M191.7,294.5c-9.8-5.4-18.3-12.1-20.7-23.4c1.4,3.4,3.2,6.4,6.4,10C177.4,281.1,181.5,285.9,191.7,294.5z M173.3,257.2
		c4.5,7.1,6.9,12.9,6.8,23.4C178.7,273,176.3,264.6,173.3,257.2z M172.1,267.7c-5.8-7.8-10.3-16.2-10.6-26
		C163.5,250,166.7,255.3,172.1,267.7z M168,230.4c3.7,9.8,5.5,11.4,5.3,19.2C172.1,241,169.7,239.9,168,230.4z M166.1,240.2
		c-5.7-12.4-9-17-10.9-28.7C160.4,225.3,163.2,228,166.1,240.2z"/>
	<path d="M302.1,193c-4.6,2.6-8,4.4-10.8,6.4c-17.1,11.4-18.8,38-21.8,63.2c-9-15.8-7.6-18.5-19.4-20.9c-14.5-3.2-19.3-4.6-24.6,2.4
		c-4.1-4.2-5.6-6.4-15.5-4.2c-17.7,3.5-18.5,3-23.8,14.3c-0.4,0.9-4.3,7.5-4.7,8.4c-0.9-6,0.1-6.2-2.4-19.4
		c-2.6-13.7-3.7-24.5-10.5-35.2c-6.5-9.1-20.8-15.9-27.8-18.3c0,11.5,1.1,28.6,1.3,30.8c2.6,26.9,13.2,69,31.9,86.7
		c15.7,14.2,33.2,13.2,51.5,13.2c9.4,0,27.2,0.6,38.1-4.6c14.7-5.7,25-21.8,30.8-36.5c10.1-24.8,15.7-49.6,15.7-89.6
		C304.8,191.8,303.7,192,302.1,193z M280.9,299.1c-7.2,10.9-23.4,18.1-30.1,18.5c-2.3,0.3-13.4,2.2-39,1.1c-4.4,0-17-1.3-23.6-4.8
		c-25.5-10.7-37.3-53.7-42.5-81c-1.6-7.3-3.5-26.4-4.4-42.6c10,4.4,22.2,12,27.7,21.9c4.8,9.2,5.9,20.1,8.6,31.4
		c3.3,14.7,1.7,10.1,3.5,19.7c0.1,0.2,0.1,0.5,0.2,0.7c13.9-21.7,7-18.4,29-22.9c6.8-1.7,10.6-2,15.3,3.6c5.8-6.9,9.5-4.9,24.3-1.8
		c11.8,2.6,8.9,4.4,18.6,19.1c0.4,0.6,1.1,1.8,1.3,2c0.9-3.4,1.3-9,2.3-14.3c0.3-1.5,5.2-24.7,6.9-30c4.6-14.5,11.8-18.4,23.6-26
		c1.6-1.1,3-1.5,7.2-3.5C307.6,225.6,301.8,270.1,280.9,299.1z M240.6,254.3c-7.4-0.1-8.8,0.6-27.6,0c-5.7,0.1-11.4,0.2-15.1,3.8
		c-4.4,4-6.7,15.9,8.7,21.2c5,1.6,12.3,3.8,13.5,4.3c0-4.9-8.6-15.5-10-17c13.9,3.5,26.3,1.5,31.1-0.4c-2.1,2.3-10.4,12.7-10.4,17.5
		c13.2-4.4,20.7-5.5,24.1-12.3C258.2,265.4,256.5,254,240.6,254.3z M231.5,282.7c0.2-1,0.7-2.6,1-3c1.6-3.4,9-13.4,9.8-14.2
		c-9.8,2.9-21.2,3.2-33.3,0.4c2.9,3.4,9.6,12.3,10.4,16.7c-10.7-4.6-24.6-6.7-23.2-18.2c0.8-8.4,10.4-8.7,16.7-9.1
		c25.3-0.5,40.6-1.8,41.7,9.1C256.1,275.9,242.4,278.1,231.5,282.7z"/>
	<path class="st2" d="M305.4,207.9c-6.9-18.8,1.1-47.5-12.4-68.8c-6.1-10.2-11.5-17.2-10.5-29.1l-0.6-0.2c-1.3,2-3,4.3-4.1,5.7
		c0.6-1.6,1.7-4.2,2.6-6.1l-0.5-0.3c-3.9,4.6-7.2,7-11.9,8.3c5-3.5,10.5-9.6,12.9-13l-0.4-0.4c-17.1,11-36.5,11.1-53.6,11.3
		c-15.4,0.1-25-0.2-36.1-6.7c-8,2.7-14.3,2.3-21.3-2.5c-21.7,42.2-12.1,21.1-25.1,99.2c-7.5-10.1-9.7-16.5-11.5-26
		c-0.5-3.1-0.9-7.8-0.6-10.9l-0.1-0.1c-6.7-14.7-9.9-23.1-8.3-52.4c1.2-12.1,3.8-21.2,11.4-30.8c-1-5.2-1.1-10.4-0.4-15.4
		c-4-7.3-6.7-14.8-7.8-17.5c5.6,4.3,6,4.5,10.7,6c1.1-2.9,2.6-5.8,3.6-7.3c0.4,3.4,0.8,5.7,1.8,8.9c0.3,0.1,2,0.5,2.5,0.7
		c-0.3-2-0.6-2.9-0.5-4.7c0.9,2,1.6,2.4,4.1,5.5c2.8,0.6,2.1,0.5,2.9,0.5c-4-6.3-6.7-11.9-7.4-20.4c5.5,3.1,13.2,4.9,21.3,4.9
		c18.9,0,38.3-14.2,65.1-14.2c23.3,0,43.4,12.9,52.3,27.6c0-3.8-0.2-6.9,1.2-10.8c0,0,0.2,5.6,0.2,9.9l0.6,0.1
		c0.9-5,2.9-9.2,6.2-13.2c-2.9,7.8-1.8,3.6-5,13.1l0.5,0.3c2.2-2.8,3.9-4.7,9.1-7.3c-3.7,3.7-6.6,5.9-8.3,8.5l0.5,0.4
		c2.2-2,4.5-2.7,6.8-0.9c-3.7-1.4-6,1-8.5,4c10,1.6,15.4,7.4,22.4,15.1c16.2,18.6,20.4,36.8,11.7,62.6c3.7,7.9,3.1,25.8-5.1,40.3
		C315.7,190.2,309.9,200.7,305.4,207.9z"/>
	<path class="st43" d="M168.6,105c0.5,0.5,1.1,1,1.6,1.5c-0.2-0.1-0.4-0.2-0.6-0.4c-21.7,42.2-12.1,21.1-25.1,99.2
		c-7.6-10.1-9.7-16.5-11.5-26c-0.5-3.1-0.9-7.8-0.6-10.9l-0.1-0.1c-6.7-14.7-9.9-23.1-8.3-52.4c1.2-12.1,3.8-21.2,11.4-30.8
		c-1-5.1-1.1-10.2-0.4-15.2c0.9,1.3,1.8,2.6,2.8,3.9c0.7,4,1.2,7.8,0.2,10.9c-14.4,44.5-6,64.9,3,96.6c-3.7-24-10.8-54.6,8.5-72.4
		c-8.2,19.8-6,28.7-4,42.2C146.9,133.2,153.4,116.5,168.6,105z M309.1,78.9c-0.6-0.6-1.1-1.2-1.7-1.8c-0.6,0.4-1.2,0.7-1.7,1.1
		c22.6,46.3,0.9,41.8,6.1,62.5c6,15.1-1.8,24.1-1.8,39.2c0-22.6-1-38.4-13.5-56.1c-4.2-6-5.4-26.3-8.2-36.3
		c-35,21.5-86.9,26-141.3-17.5c25.6,9.1,77.9,2,95.9-9.5c-20.5,3.7-63.2,3.9-82.4-4c46-3.6,45.5-18.3,84.7-21.1
		c-18.9-7-60,10.9-79,10.9c-8.1,0-15.8-1.8-21.3-4.9c0.7,8.5,3.4,14.1,7.4,20.4c-0.8,0-0.2,0.1-2.9-0.5c-2.5-3.1-3.2-3.5-4.1-5.5
		c0,1.8,0.2,2.7,0.5,4.7c-0.5-0.1-2.2-0.6-2.5-0.7c-1-3.3-1.4-5.6-1.8-8.9c-1,1.5-2.5,4.4-3.6,7.3c-4.6-1.5-5.1-1.7-10.7-6
		c1.1,2.7,3.8,10.2,7.8,17.5c0,0.1,0,0.2,0,0.3c9.5,13.9,22.9,24.8,35.2,36.5c6.7,4.4,12.9,4.7,20.7,2.1c11.1,6.5,20.7,6.8,36.1,6.7
		c17.1-0.1,36.5-0.3,53.5-11.3l0.4,0.4c-2.4,3.4-7.9,9.5-12.9,13c4.6-1.3,8-3.7,11.9-8.3l0.5,0.3c-1,1.9-2,4.4-2.6,6.1
		c1.1-1.4,2.8-3.6,4.1-5.7l0.6,0.2c-1,11.9,4.4,18.9,10.5,29.1c13.5,21.3,5.5,50.1,12.4,68.8c4.5-7.3,10.3-17.7,10.3-26.2
		c8.2-14.4,8.8-32.3,5.1-40.3C329.5,115.7,325.3,97.5,309.1,78.9z M310.2,117.6c-0.5-14.4-10-32.6-10-32.6
		c-4.4-7.9-8.4-11.6-15.1-13.1c18.7,0.9,26.1,28.9,25.3,43.6C310.4,116.8,310.2,117.6,310.2,117.6z M267.6,56.9c5,4,6.1,5.2,11,11.9
		c-25.1-45.1-74.4-11-90-12.1C204.4,60,240.3,36.9,267.6,56.9z M280.4,76.5c-30.1,25-76.1,14.4-113.7,2.6
		C204.1,96.2,251.8,105.5,280.4,76.5z M161.9,103.6c-9.9,5.2-14.5,18.2-14.9,26.8C148.8,123,154.4,109.4,161.9,103.6z M149.5,96.5
		c-14.1,8.6-16.9,28.3-15.5,44.9C135.5,126.1,138.3,106.1,149.5,96.5z M251.2,77.8c-1.5,0.3-11,1.6-16.1,1.8
		c-4,0.2-19.7,0.5-33.8-0.1c14.6,3.1,23.3,3.7,33.9,3.1c12.2-0.4,23.2-2.9,32.2-10.3C261.2,75.9,258.4,76.4,251.2,77.8z
		 M301.9,117.8c0,0-0.4-0.7-0.9-1.7c-1.4-2.3-2.9-8.6-9-28.3c4.5,36.5,11.8,29.8,15.1,48.7C307.1,129.8,306.6,126.3,301.9,117.8z"/>
	<path class="st44" d="M312.8,161.9c0.5-4.9,0.3-2.7,0.4-5.4c0.5-9.4-5.2-17.3-1.7-28.6c2.8-8.2,4.4-9.5,3.2-23.8
		c-0.2-2.1-0.7-7.2-1.7-9c1.3,2.2,2.1,6.4,2.6,9c2.5,14.4,0.4,16.6-2.3,24.5C309.7,140.5,316.6,145.8,312.8,161.9z M288.2,87.5
		c1.7,45.8,11,35.2,19.2,63C301.8,117.6,296.7,144.8,288.2,87.5z M147.6,110.8c-13.9,17.4-12.5,30-9.1,55.8
		C138.3,140.5,135.1,130.6,147.6,110.8z M137.7,85.9c-8,24.6-9.7,35.7-5.9,62.3C131.1,121.5,131.2,115.7,137.7,85.9z M168.1,105.4
		c-14.5,10.4-22.1,29.5-22.6,45.8C147.8,135.6,156.1,116,168.1,105.4z M269,96.3c-18.2,6.7-47.8,8.5-69.4,2
		c-16.8-4.9-43.1-21.4-57.3-31.8c12.8,10.2,35.4,25.4,51.2,31.3c16.4,6.1,42.1,8.4,62,3.4c14-3.5,21.2-6.8,32.7-13.7
		C283.1,90.3,275.6,94.2,269,96.3z M229.7,41.7c18.4-3.4,40,8.4,51.4,22.4C269.2,47,249.7,38.5,238,38.3
		c-19.1-0.3-38.9,16.1-77.6,17.5C196.8,57.3,214.3,44.2,229.7,41.7z M244.2,61c-26.1,9.3-46.2,11.5-73.6,12.9
		C198.8,75.7,219.1,73,244.2,61z M271.6,66.3c-16.1,7.6-23.1,8.8-56.3,10.8C236.1,78,255.5,76.9,271.6,66.3z M218.3,89.4
		c16.1,1.9,44.2-0.2,58.3-14.8c-17,14.3-48.5,13.8-73,12.8C213,88.9,211.3,88.7,218.3,89.4z M287.2,75.4
		c11.5,4.2,14.3,24.4,18.9,40.7C304,101.6,300.5,78.5,287.2,75.4z"/>
	<path d="M309.3,78.7c-6.6-7.2-12.4-13.5-22.1-15.1c3.2-3.7,5.4-5.1,9.4-2.8c-2.4-2.8-5.2-3.4-8.5-0.3c1.9-2.9,5.2-5.2,9.5-9.7
		c-6.4,3-8.3,5-10.7,8.2c3.4-10.1,2-4.7,5.6-14.7c-3.8,4.3-6.3,8.9-7.3,14.7c0-8.9-0.3-7.8-0.1-11.6c-2.1,4.7-1.9,8.8-1.9,11.5
		c-3.4-5.6-8.3-10.3-13.7-14.1c-37.8-27.6-75.5-2.2-95.9,0.9c-8.3,1.4-20.7,0.5-29.2-4.6c0.6,8.7,3.3,14.5,7.2,20.6
		c0,0-2.2-0.5-2.2-0.5c-3-3.7-3.3-3.6-4.5-6.5c-0.3,2.7,0.2,4.1,0.4,5.6c-0.8-0.2-1.4-0.4-1.9-0.5c-1.1-3.6-1.4-6.4-1.9-9.5
		c-0.9,1.2-2.9,4.8-4,7.8c-4.5-1.4-4.8-1.7-11.2-6.5c0.8,1.5,3.5,9.7,8.2,18.5c-0.7,5.3-0.5,10.7,0.4,15.3
		c-7.6,9.5-10.2,18.6-11.4,30.8c-1.6,28.8,1.3,37.1,8.3,52.5c0,0,0,0,0,0.1c-0.3,3,0.2,7.7,0.7,10.8c1.8,9.6,4,16.1,11.9,26.6
		c0,0,0,0.1,0.1,0.1c5.1-30.7,4.6-31.5,5.7-39.1c5.4-38.8,5.2-33,19.3-60.5c5.8,4,12.1,5.4,21.2,2.4c6.6,3.8,13.2,6.7,31.8,6.7
		c18.4-0.2,39.5,0.6,58.1-11.4c-2.8,4-9.2,10.8-14.3,13.8c5.2-1.1,9-3.2,13.7-8.8c-1.4,2.9-3.1,7.3-3.3,7.8c0.2-0.3,3.2-3.9,5.3-7.1
		c-1,12,4.4,19,10.5,29.3c13.5,21.4,5.3,50.6,12.6,69.3c4.7-7.5,10.6-18.2,10.6-26.8c7.9-13.7,9-31.8,5.1-40.4
		C329,117.9,327.4,99.5,309.3,78.7z M145.2,55.4c0.7,2.1,0.9,2.1,3.8,5.4c-1.4-0.3-2.4-0.5-3.2-0.7
		C145.4,58.6,145.2,57.1,145.2,55.4z M141.4,51.4c0.1,2.3,0.7,5.3,1.5,8c-4.3-1.1-2.7-0.8-4.2-1.2C139.9,54.5,140.4,53.6,141.4,51.4
		z M144,202.6c-6.4-11.5-8-15.4-9.8-27c-0.2-1.3-0.7-5.2-0.7-7c-9.2-20.9-12.6-60.7,1.8-82.6c0,0,0,0,0,0s0.6-0.9,1.7-2.3
		c-0.4-2-0.8-6.3-0.7-11c1.1,2,2.4,3.8,3.5,5.5c0,0,0.9,1.2,0.9,1.2c6.9,8.7,13.2,16,28.5,26.8C150.9,136.1,152,126,144,202.6z
		 M321.5,131.9c-0.5,3.6-1.7,8.4-2.3,10.5c4.2,10.7-0.4,30.8-4.6,39.8c-1.8,10.7-3.8,12.9-9.1,23.5c-3.7-16.6,3.9-46-10.2-68
		c-9.1-15.2-13.1-17.1-10.9-35.9c0,0,0.1-1,0.1-1.3c-19.1,11.6-40.1,13-67.8,12.4c-8,0-18.9-1-25.6-5.2
		c-13.7,3.9-18.8-2.2-30.2-11.1c-12.3-10.5-20.7-19.6-31-41.1c5.8,4.7,17.4,7.1,24.7,8.3c-4.9-6.6-7.8-12.6-9.2-21.1
		c5.2,3.5,17.8,6.9,28.9,5.7c20.4-1.9,49-22.9,84.1-7c16.3,7.2,24.6,17.3,26.5,22.6c0,0,0,0,0.1,0c0.1,0,0.2,0,0.3,0.1
		c0,0,0.5,0.1,0.5,0.1c10.5,3.5,11.2,4.2,21.4,16.1C313,87.4,326.8,101.4,321.5,131.9z"/>
	
		<linearGradient id="SVGID_11_" gradientUnits="userSpaceOnUse" x1="270.7917" y1="288.74" x2="270.7917" y2="228.395" gradientTransform="matrix(1 0 0 -1 0 452)">
		<stop  offset="0" style="stop-color:#000000"/>
		<stop  offset="1" style="stop-color:#000000;stop-opacity:0.8"/>
	</linearGradient>
	<path class="st45" d="M276.6,221.4c-4.9,0-10-0.5-14.3-1.5c-7.1-1.6-15.9-7.9-21.6-17.3c-6.2-10.3-7.6-17.7-5.6-25
		c2.5-9.5,18.7-12.8,33-12.8c14.7,0,31.7,3.5,35.8,10.2c6.9,11.3,2.1,31.5-1.9,37.7C296.8,220.5,282.5,221.4,276.6,221.4z"/>
	
		<linearGradient id="SVGID_12_" gradientUnits="userSpaceOnUse" x1="180.2081" y1="288.74" x2="180.2081" y2="228.395" gradientTransform="matrix(1 0 0 -1 0 452)">
		<stop  offset="0" style="stop-color:#000000"/>
		<stop  offset="1" style="stop-color:#000000;stop-opacity:0.8"/>
	</linearGradient>
	<path class="st46" d="M174.4,221.4c4.9,0,10-0.5,14.3-1.5c7.1-1.6,15.9-7.9,21.6-17.3c6.2-10.3,7.6-17.7,5.6-25
		c-2.5-9.5-18.7-12.8-33-12.8c-14.7,0-31.7,3.5-35.8,10.2c-6.9,11.3-2.1,31.5,1.9,37.7C154.2,220.5,168.5,221.4,174.4,221.4z"/>
	<path class="st47" d="M271.2,161.3c-19.2,0-30.2,4.5-45.7,4.5c-15.5,0-26.5-4.5-45.7-4.5c-22.8,0.5-38.2,4.8-41.8,7.6v10.6
		c4,2.1,1.4,8,5.1,24.9c3.3,15.3,14.2,17.4,22.1,18.7c11.1,1.9,24,0.8,33-4.5c11.5-6.8,18.4-19.3,21-30.5c1.5-6.3,5.7-5.9,6.4-5.9
		s4.9-0.4,6.4,5.9c2.6,11.3,9.5,23.7,21,30.5c9,5.3,21.9,6.4,33,4.5c7.8-1.3,18.7-3.4,22.1-18.7c3.7-16.9,1.1-22.8,5.1-24.9v-10.6
		C309.4,166.2,294,161.9,271.2,161.3z M188.6,219.1c-12.7,2.9-32.9,2.2-38.9-7c-3.9-6-8.6-26-1.9-36.9c7.1-11.6,62.7-15.2,67.5,2.4
		C219,191.5,204.9,215.4,188.6,219.1z M301.3,212.1c-6,9.2-26.2,9.9-38.9,7c-16.3-3.7-30.4-27.6-26.7-41.5
		c4.7-17.6,60.3-14,67.5-2.4C309.9,186.1,305.2,206.1,301.3,212.1z"/>
	<path class="st48" d="M310,170.2c1,1.2,0.8,2.6,0.7,5.4c0.1-3.2-0.7-4.5-1.6-5.3c-1.3-1.5-8.1-4.3-11.9-5.2
		C302.1,166,308.3,168.2,310,170.2z M306.3,199.3c-1.7,7.7-2.3,11.9-6.5,15.7c-4,3.7-10.7,5.1-16,5.5c8.1-0.3,13.2-2.5,16.4-5.3
		C304,211.8,305.1,207.3,306.3,199.3z M141,170.2c-1,1.2-0.8,2.6-0.7,5.4c-0.1-3.2,0.7-4.5,1.6-5.3c1.3-1.5,8.1-4.3,11.9-5.2
		C148.9,166,142.7,168.2,141,170.2z M150.8,215.2c3.2,2.8,8.3,5,16.4,5.3c-5.2-0.4-11.9-1.9-16-5.5c-4.2-3.8-4.8-8.1-6.5-15.7
		C145.9,207.3,147,211.8,150.8,215.2z"/>
	<path class="st49" d="M262.2,162.5c-11.9,0.9-29,4.4-36.7,4.4s-24.8-3.5-36.7-4.4c-13.3-1-26.9,0.6-34.2,2.4c0.5,0.1,1,0.1,1.5,0.2
		c10.8-2.2,19.4-2.4,29.3-2.1c10.6,0.3,32,4.5,40,4.3c7.9,0.2,29.4-4,40-4.3c10-0.3,18.5-0.1,29.3,2.1c0.6-0.1,1-0.1,1.5-0.2
		C289.1,163.1,275.5,161.5,262.2,162.5z"/>
</g>
<g>
	<g>
		<path class="st50" d="M431,225.5C431,338.8,338.8,431,225.5,431C112.2,431,20,338.8,20,225.5C20,112.2,112.2,20,225.5,20l2.6,0V0
			c-0.9,0-1.7,0-2.6,0C165.3,0,108.6,23.5,66,66S0,165.3,0,225.5S23.5,342.4,66,385c42.6,42.6,99.2,66,159.5,66s116.9-23.5,159.5-66
			c42.6-42.6,66-99.2,66-159.5c0,0,0,0,0,0L431,225.5"/>
	</g>
	<g>
		<path class="st51" d="M431,225.5C431,113,340.2,21.4,228.1,20V0C287.3,0.7,343,24,385,66c42.6,42.6,66,99.2,66,159.5H431"/>
	</g>
</g>
</svg>
