<?xml version="1.0" encoding="utf-8"?>
<!-- Generator: Adobe Illustrator 25.2.0, SVG Export Plug-In . SVG Version: 6.00 Build 0)  -->
<svg version="1.1" id="Layer_1" xmlns="http://www.w3.org/2000/svg" xmlns:xlink="http://www.w3.org/1999/xlink" x="0px" y="0px"
	 viewBox="0 0 101 86" style="enable-background:new 0 0 101 86;" xml:space="preserve">
<style type="text/css">
	.st0{fill:#FFFFFF;stroke:#8A8A8A;}
	.st1{fill:#141471;}
	.st2{fill:#EAEAEA;}
</style>
<circle class="st0" cx="43.8" cy="43" r="42.5"/>
<ellipse class="st1" cx="55.7" cy="43" rx="45.3" ry="43"/>
<g>
	<path class="st2" d="M76.8,61.9L65,50.1c2.8-3.4,4.3-7.8,3.9-12.2c-0.3-4.4-2.3-8.6-5.6-11.5c-3.3-3-7.6-4.6-12-4.5
		c-4.4,0.1-8.7,1.9-11.8,5c-3.1,3.1-4.9,7.4-5,11.8s1.5,8.7,4.5,12c3,3.3,7.1,5.3,11.5,5.6c4.4,0.3,8.8-1.1,12.2-3.9l11.8,11.8
		L76.8,61.9z M37.7,39.1c0-2.8,0.8-5.5,2.4-7.8c1.5-2.3,3.7-4.1,6.3-5.2c2.6-1.1,5.4-1.3,8.1-0.8c2.7,0.5,5.2,1.9,7.2,3.9
		c2,2,3.3,4.5,3.9,7.2c0.5,2.7,0.3,5.6-0.8,8.1c-1.1,2.6-2.9,4.8-5.2,6.3c-2.3,1.5-5,2.4-7.8,2.4c-3.7,0-7.3-1.5-9.9-4.1
		C39.2,46.4,37.7,42.8,37.7,39.1z"/>
</g>
</svg>
