<?xml version="1.0" encoding="utf-8"?>
<!-- Generator: Adobe Illustrator 25.2.0, SVG Export Plug-In . SVG Version: 6.00 Build 0)  -->
<svg version="1.1" id="Layer_1" xmlns="http://www.w3.org/2000/svg" xmlns:xlink="http://www.w3.org/1999/xlink" x="0px" y="0px"
	 viewBox="0 0 332 203" style="enable-background:new 0 0 332 203;" xml:space="preserve">
<style type="text/css">
	.st0{fill:#FFFFFF;}
</style>
<g>
	<rect x="4" y="2" width="324" height="195"/>
</g>
<path class="st0" d="M46,56.4c2.2,0,4.3-0.4,6.3-1.3c2-0.9,3.7-2.2,5.1-3.8l3.8,3.8c-1.9,2.1-4.2,3.7-6.9,4.9
	c-2.7,1.2-5.5,1.8-8.5,1.8c-2.8,0-5.5-0.5-8-1.5c-2.5-1-4.6-2.4-6.4-4.2c-1.8-1.8-3.2-3.9-4.3-6.3c-1-2.5-1.5-5.1-1.5-7.8
	c0-2.8,0.5-5.4,1.5-7.8c1.1-2.4,2.5-4.5,4.3-6.3c1.8-1.8,3.9-3.2,6.4-4.2c2.5-1,5.2-1.5,8-1.5c3,0,5.9,0.6,8.6,1.8
	c2.8,1.2,5.1,2.8,6.9,4.8l-3.9,4c-1.5-1.7-3.2-3-5.3-3.9c-2.1-0.9-4.2-1.4-6.4-1.4c-2,0-3.9,0.4-5.7,1.1c-1.8,0.7-3.3,1.8-4.6,3.1
	c-1.2,1.3-2.2,2.8-3,4.6c-0.7,1.8-1.1,3.7-1.1,5.7c0,2.1,0.4,4,1.1,5.8c0.7,1.8,1.7,3.3,3,4.6c1.3,1.3,2.8,2.3,4.6,3.1
	C42,56,43.9,56.4,46,56.4z M66.2,61.1v-28h5.5v3.6c0.8-1.4,1.9-2.4,3.2-3.1c1.3-0.7,2.8-1.1,4.5-1.1c0.6,0,1.1,0,1.5,0.1
	c0.4,0.1,0.9,0.2,1.3,0.3v5c-0.5-0.2-1-0.3-1.6-0.4c-0.6-0.1-1.1-0.2-1.7-0.2c-1.6,0-3.1,0.4-4.3,1.3c-1.2,0.8-2.2,2.1-2.9,3.8v18.7
	H66.2z M109.2,57.9c-1.6,1.2-3.3,2.2-5.1,2.8c-1.8,0.6-3.7,0.9-5.8,0.9c-2.1,0-4-0.4-5.8-1.1c-1.8-0.8-3.4-1.8-4.7-3.1
	c-1.3-1.3-2.4-2.8-3.1-4.6c-0.7-1.8-1.1-3.7-1.1-5.8c0-2,0.4-3.9,1.1-5.7c0.7-1.8,1.7-3.3,3-4.6c1.2-1.3,2.7-2.3,4.5-3
	c1.7-0.8,3.6-1.2,5.5-1.2c1.9,0,3.7,0.4,5.3,1.2c1.7,0.7,3.1,1.8,4.3,3.1c1.2,1.3,2.2,2.8,2.9,4.6c0.7,1.8,1,3.7,1,5.8v1.6H89.1
	c0.4,2.3,1.4,4.2,3.2,5.8c1.8,1.5,3.8,2.3,6.3,2.3c1.4,0,2.7-0.2,3.9-0.7c1.2-0.4,2.3-1,3.2-1.8L109.2,57.9z M97.5,37.3
	c-2.1,0-3.9,0.7-5.5,2.1c-1.5,1.4-2.5,3.2-2.9,5.4h16.6c-0.4-2.1-1.4-3.9-2.9-5.3C101.3,38,99.6,37.3,97.5,37.3z M125,61.6
	c-3,0-5.5-0.8-7.4-2.4c-1.9-1.6-2.9-3.6-2.9-6.2c0-2.6,1-4.7,3-6.2c2-1.5,4.8-2.3,8.3-2.3c1.4,0,2.7,0.1,4,0.4
	c1.3,0.3,2.5,0.6,3.7,1.1v-3c0-2-0.6-3.5-1.8-4.5c-1.2-1-2.9-1.5-5.1-1.5c-1.3,0-2.6,0.2-4,0.6c-1.4,0.4-3,1-4.7,1.8l-2-4.1
	c2.1-1,4.1-1.7,5.9-2.1c1.9-0.5,3.7-0.7,5.6-0.7c3.6,0,6.4,0.9,8.4,2.6c2,1.7,3,4.2,3,7.4v18.5h-5.4v-2.4c-1.2,1-2.6,1.7-4,2.2
	C128.2,61.4,126.6,61.6,125,61.6z M120,53c0,1.4,0.6,2.5,1.7,3.3c1.2,0.8,2.7,1.3,4.6,1.3c1.5,0,2.8-0.2,4.1-0.7
	c1.2-0.4,2.4-1.1,3.4-2v-4.8c-1.1-0.6-2.2-1-3.4-1.3c-1.2-0.3-2.5-0.4-3.8-0.4c-2,0-3.6,0.4-4.7,1.3C120.5,50.5,120,51.6,120,53z
	 M147.9,54.2V37.8H142v-4.6h5.9V26l5.4-1.3v8.5h8.2v4.6h-8.2v15.2c0,1.4,0.3,2.4,0.9,3c0.7,0.6,1.7,0.9,3.2,0.9c0.8,0,1.4,0,2-0.1
	c0.6-0.1,1.3-0.3,2-0.5v4.6c-0.7,0.3-1.6,0.5-2.6,0.6c-1,0.1-1.8,0.2-2.6,0.2c-2.7,0-4.8-0.6-6.2-1.9
	C148.6,58.5,147.9,56.6,147.9,54.2z M189.3,57.9c-1.6,1.2-3.3,2.2-5.1,2.8c-1.8,0.6-3.7,0.9-5.8,0.9c-2.1,0-4-0.4-5.8-1.1
	c-1.8-0.8-3.4-1.8-4.7-3.1c-1.3-1.3-2.4-2.8-3.1-4.6c-0.7-1.8-1.1-3.7-1.1-5.8c0-2,0.4-3.9,1.1-5.7c0.7-1.8,1.7-3.3,3-4.6
	c1.2-1.3,2.7-2.3,4.5-3c1.7-0.8,3.6-1.2,5.5-1.2c1.9,0,3.7,0.4,5.3,1.2c1.7,0.7,3.1,1.8,4.3,3.1c1.2,1.3,2.2,2.8,2.9,4.6
	c0.7,1.8,1,3.7,1,5.8v1.6h-22.1c0.4,2.3,1.4,4.2,3.2,5.8c1.8,1.5,3.9,2.3,6.3,2.3c1.4,0,2.7-0.2,3.9-0.7c1.2-0.4,2.3-1,3.2-1.8
	L189.3,57.9z M177.7,37.3c-2.1,0-3.9,0.7-5.5,2.1c-1.5,1.4-2.5,3.2-2.9,5.4h16.6c-0.4-2.1-1.4-3.9-2.9-5.3
	C181.5,38,179.8,37.3,177.7,37.3z M23.4,112.1l16-38.5h6.8l15.7,38.5h-6.3l-4.5-11.3H33.9l-4.5,11.3H23.4z M35.9,96.1h13.4
	l-6.7-16.9L35.9,96.1z M69,112.1l-12.1-28h6l8.7,21l8.7-21h5.9l-12.1,28H69z M98.6,112.6c-3,0-5.5-0.8-7.4-2.4
	c-1.9-1.6-2.9-3.6-2.9-6.2c0-2.6,1-4.7,3-6.2c2-1.5,4.8-2.3,8.3-2.3c1.4,0,2.7,0.1,4,0.4c1.3,0.3,2.5,0.6,3.7,1.1v-3
	c0-2-0.6-3.5-1.8-4.5c-1.2-1-2.9-1.5-5.1-1.5c-1.3,0-2.6,0.2-4,0.6c-1.4,0.4-3,1-4.7,1.8l-2-4.1c2.1-1,4.1-1.7,5.9-2.1
	c1.9-0.5,3.7-0.7,5.6-0.7c3.6,0,6.4,0.9,8.4,2.6c2,1.7,3,4.2,3,7.4v18.5h-5.4v-2.4c-1.2,1-2.6,1.7-4,2.2S100.3,112.6,98.6,112.6z
	 M93.6,104c0,1.4,0.6,2.5,1.7,3.3c1.2,0.8,2.7,1.3,4.6,1.3c1.5,0,2.8-0.2,4.1-0.7c1.2-0.4,2.4-1.1,3.4-2v-4.8
	c-1.1-0.6-2.2-1-3.4-1.3c-1.2-0.3-2.5-0.4-3.8-0.4c-2,0-3.6,0.4-4.7,1.3C94.2,101.5,93.6,102.6,93.6,104z M121.6,105.2V88.8h-5.9
	v-4.6h5.9V77l5.4-1.3v8.5h8.2v4.6h-8.2v15.2c0,1.4,0.3,2.4,0.9,3c0.7,0.6,1.7,0.9,3.2,0.9c0.8,0,1.4,0,2-0.1c0.6-0.1,1.3-0.3,2-0.5
	v4.6c-0.7,0.3-1.6,0.5-2.6,0.6c-1,0.1-1.8,0.2-2.6,0.2c-2.7,0-4.8-0.6-6.2-1.9C122.3,109.5,121.6,107.6,121.6,105.2z M148.2,112.6
	c-3,0-5.5-0.8-7.4-2.4c-1.9-1.6-2.9-3.6-2.9-6.2c0-2.6,1-4.7,3-6.2c2-1.5,4.8-2.3,8.3-2.3c1.4,0,2.7,0.1,4,0.4
	c1.3,0.3,2.5,0.6,3.7,1.1v-3c0-2-0.6-3.5-1.8-4.5c-1.2-1-2.9-1.5-5.1-1.5c-1.3,0-2.6,0.2-4,0.6c-1.4,0.4-3,1-4.7,1.8l-2-4.1
	c2.1-1,4.1-1.7,5.9-2.1c1.9-0.5,3.7-0.7,5.6-0.7c3.6,0,6.4,0.9,8.4,2.6c2,1.7,3,4.2,3,7.4v18.5h-5.4v-2.4c-1.2,1-2.6,1.7-4,2.2
	C151.5,112.4,149.9,112.6,148.2,112.6z M143.2,104c0,1.4,0.6,2.5,1.7,3.3c1.2,0.8,2.7,1.3,4.6,1.3c1.5,0,2.8-0.2,4.1-0.7
	c1.2-0.4,2.4-1.1,3.4-2v-4.8c-1.1-0.6-2.2-1-3.4-1.3c-1.2-0.3-2.5-0.4-3.9-0.4c-2,0-3.6,0.4-4.7,1.3
	C143.8,101.5,143.2,102.6,143.2,104z M168.6,112.1v-28h5.5v3.6c0.8-1.4,1.9-2.4,3.2-3.1c1.3-0.7,2.8-1.1,4.5-1.1
	c0.6,0,1.1,0,1.5,0.1c0.4,0.1,0.9,0.2,1.3,0.3v5c-0.5-0.2-1-0.3-1.6-0.4c-0.6-0.1-1.1-0.2-1.7-0.2c-1.6,0-3.1,0.4-4.3,1.3
	c-1.2,0.8-2.2,2.1-2.9,3.8v18.7H168.6z"/>
</svg>
