<svg width="227" height="43" viewBox="0 0 227 43" fill="none" xmlns="http://www.w3.org/2000/svg">
<g filter="url(#filter0_d)">
<rect x="4" width="218.077" height="35" rx="13" fill="#00AA4F"/>
</g>
<path d="M70.2199 23.28C71.0199 23.28 71.7866 23.12 72.5199 22.8C73.2533 22.4667 73.8733 22 74.3799 21.4L75.7599 22.8C75.0799 23.5467 74.2399 24.14 73.2399 24.58C72.2533 25.0067 71.2266 25.22 70.1599 25.22C69.1333 25.22 68.1666 25.0333 67.2599 24.66C66.3666 24.2867 65.5933 23.78 64.9399 23.14C64.2866 22.4867 63.7666 21.72 63.3799 20.84C63.0066 19.9467 62.8199 19 62.8199 18C62.8199 16.9867 63.0066 16.04 63.3799 15.16C63.7666 14.28 64.2866 13.52 64.9399 12.88C65.5933 12.2267 66.3666 11.7133 67.2599 11.34C68.1666 10.9667 69.1333 10.78 70.1599 10.78C71.2533 10.78 72.2999 11 73.2999 11.44C74.3133 11.8667 75.1466 12.4533 75.7999 13.2L74.3999 14.64C73.8666 14.0267 73.2266 13.5533 72.4799 13.22C71.7333 12.8867 70.9599 12.72 70.1599 12.72C69.4266 12.72 68.7399 12.8533 68.0999 13.12C67.4599 13.3867 66.9066 13.76 66.4399 14.24C65.9866 14.7067 65.6266 15.2667 65.3599 15.92C65.0933 16.56 64.9599 17.2533 64.9599 18C64.9599 18.7467 65.0933 19.4467 65.3599 20.1C65.6266 20.74 65.9933 21.2933 66.4599 21.76C66.9266 22.2267 67.4799 22.6 68.1199 22.88C68.7733 23.1467 69.4733 23.28 70.2199 23.28ZM76.7238 19.9C76.7238 19.1667 76.8572 18.48 77.1238 17.84C77.4038 17.1867 77.7838 16.6267 78.2638 16.16C78.7438 15.68 79.3038 15.3067 79.9438 15.04C80.5972 14.76 81.2905 14.62 82.0238 14.62C82.7572 14.62 83.4438 14.76 84.0838 15.04C84.7372 15.3067 85.2972 15.68 85.7638 16.16C86.2438 16.6267 86.6172 17.1867 86.8838 17.84C87.1638 18.48 87.3038 19.1667 87.3038 19.9C87.3038 20.6467 87.1638 21.3467 86.8838 22C86.6172 22.64 86.2438 23.2 85.7638 23.68C85.2972 24.1467 84.7372 24.52 84.0838 24.8C83.4438 25.0667 82.7572 25.2 82.0238 25.2C81.2905 25.2 80.5972 25.0667 79.9438 24.8C79.3038 24.52 78.7438 24.1467 78.2638 23.68C77.7838 23.2 77.4038 22.64 77.1238 22C76.8572 21.3467 76.7238 20.6467 76.7238 19.9ZM82.0238 23.44C82.9438 23.44 83.7238 23.1 84.3638 22.42C85.0172 21.7267 85.3438 20.8867 85.3438 19.9C85.3438 18.9133 85.0172 18.08 84.3638 17.4C83.7238 16.72 82.9438 16.38 82.0238 16.38C81.1038 16.38 80.3172 16.72 79.6638 17.4C79.0105 18.08 78.6838 18.9133 78.6838 19.9C78.6838 20.8867 79.0038 21.7267 79.6438 22.42C80.2972 23.1 81.0905 23.44 82.0238 23.44ZM89.1956 25V14.82H91.1956V15.78C91.5689 15.4067 91.9956 15.12 92.4756 14.92C92.9556 14.72 93.4822 14.62 94.0556 14.62C94.7356 14.62 95.3489 14.7733 95.8956 15.08C96.4422 15.3733 96.8756 15.7867 97.1956 16.32C97.6089 15.76 98.1022 15.34 98.6756 15.06C99.2622 14.7667 99.9156 14.62 100.636 14.62C101.756 14.62 102.669 14.9933 103.376 15.74C104.096 16.4733 104.456 17.4267 104.456 18.6V25H102.456V18.94C102.456 18.14 102.242 17.5133 101.816 17.06C101.402 16.5933 100.836 16.36 100.116 16.36C99.6222 16.36 99.1756 16.4733 98.7756 16.7C98.3756 16.9267 98.0289 17.2667 97.7356 17.72C97.7622 17.8533 97.7822 18 97.7956 18.16C97.8089 18.3067 97.8156 18.4533 97.8156 18.6V25H95.8356V18.94C95.8356 18.14 95.6222 17.5133 95.1956 17.06C94.7822 16.5933 94.2156 16.36 93.4956 16.36C93.0156 16.36 92.5822 16.4667 92.1956 16.68C91.8089 16.88 91.4756 17.1867 91.1956 17.6V25H89.1956ZM106.754 29.14V14.82H108.734V15.8C109.147 15.4267 109.621 15.1467 110.154 14.96C110.687 14.76 111.254 14.66 111.854 14.66C112.574 14.66 113.247 14.8 113.874 15.08C114.501 15.3467 115.041 15.7133 115.494 16.18C115.961 16.6467 116.327 17.2 116.594 17.84C116.861 18.48 116.994 19.1667 116.994 19.9C116.994 20.6333 116.861 21.3267 116.594 21.98C116.327 22.62 115.961 23.1733 115.494 23.64C115.041 24.1067 114.494 24.48 113.854 24.76C113.214 25.0267 112.534 25.16 111.814 25.16C111.254 25.16 110.707 25.0733 110.174 24.9C109.654 24.7267 109.181 24.48 108.754 24.16V29.14H106.754ZM111.594 16.4C111.021 16.4 110.487 16.5067 109.994 16.72C109.501 16.9333 109.087 17.2333 108.754 17.62V22.22C109.074 22.5933 109.481 22.8867 109.974 23.1C110.481 23.3133 111.021 23.42 111.594 23.42C112.567 23.42 113.381 23.0867 114.034 22.42C114.701 21.7533 115.034 20.92 115.034 19.92C115.034 18.92 114.701 18.0867 114.034 17.42C113.367 16.74 112.554 16.4 111.594 16.4ZM120.903 10.56V25H118.903V11L120.903 10.56ZM132.078 23.84C131.491 24.2933 130.878 24.6333 130.238 24.86C129.598 25.0733 128.898 25.18 128.138 25.18C127.391 25.18 126.691 25.0467 126.038 24.78C125.385 24.5 124.818 24.1267 124.338 23.66C123.858 23.1933 123.478 22.64 123.198 22C122.931 21.3467 122.798 20.6467 122.798 19.9C122.798 19.1667 122.931 18.48 123.198 17.84C123.465 17.2 123.825 16.6467 124.278 16.18C124.731 15.7133 125.271 15.3467 125.898 15.08C126.525 14.8 127.191 14.66 127.898 14.66C128.591 14.66 129.238 14.8 129.838 15.08C130.451 15.3467 130.971 15.72 131.398 16.2C131.838 16.6667 132.185 17.2267 132.438 17.88C132.691 18.5333 132.818 19.2333 132.818 19.98V20.56H124.778C124.911 21.4 125.298 22.1 125.938 22.66C126.578 23.2067 127.338 23.48 128.218 23.48C128.711 23.48 129.185 23.4 129.638 23.24C130.091 23.08 130.478 22.86 130.798 22.58L132.078 23.84ZM127.858 16.34C127.098 16.34 126.431 16.5933 125.858 17.1C125.298 17.6067 124.945 18.26 124.798 19.06H130.838C130.691 18.2867 130.338 17.64 129.778 17.12C129.231 16.6 128.591 16.34 127.858 16.34ZM135.652 22.48V16.5H133.492V14.82H135.652V12.22L137.632 11.74V14.82H140.632V16.5H137.632V22.02C137.632 22.54 137.746 22.9067 137.972 23.12C138.212 23.3333 138.599 23.44 139.132 23.44C139.412 23.44 139.659 23.4267 139.872 23.4C140.099 23.36 140.339 23.2933 140.592 23.2V24.88C140.326 24.9733 140.012 25.0467 139.652 25.1C139.306 25.1533 138.986 25.18 138.692 25.18C137.706 25.18 136.952 24.9533 136.432 24.5C135.912 24.0333 135.652 23.36 135.652 22.48ZM150.711 23.84C150.124 24.2933 149.511 24.6333 148.871 24.86C148.231 25.0733 147.531 25.18 146.771 25.18C146.024 25.18 145.324 25.0467 144.671 24.78C144.018 24.5 143.451 24.1267 142.971 23.66C142.491 23.1933 142.111 22.64 141.831 22C141.564 21.3467 141.431 20.6467 141.431 19.9C141.431 19.1667 141.564 18.48 141.831 17.84C142.098 17.2 142.458 16.6467 142.911 16.18C143.364 15.7133 143.904 15.3467 144.531 15.08C145.158 14.8 145.824 14.66 146.531 14.66C147.224 14.66 147.871 14.8 148.471 15.08C149.084 15.3467 149.604 15.72 150.031 16.2C150.471 16.6667 150.818 17.2267 151.071 17.88C151.324 18.5333 151.451 19.2333 151.451 19.98V20.56H143.411C143.544 21.4 143.931 22.1 144.571 22.66C145.211 23.2067 145.971 23.48 146.851 23.48C147.344 23.48 147.818 23.4 148.271 23.24C148.724 23.08 149.111 22.86 149.431 22.58L150.711 23.84ZM146.491 16.34C145.731 16.34 145.064 16.5933 144.491 17.1C143.931 17.6067 143.578 18.26 143.431 19.06H149.471C149.324 18.2867 148.971 17.64 148.411 17.12C147.864 16.6 147.224 16.34 146.491 16.34ZM161.195 25V24.04C160.768 24.4 160.288 24.68 159.755 24.88C159.221 25.0667 158.661 25.16 158.075 25.16C157.355 25.16 156.681 25.0267 156.055 24.76C155.428 24.48 154.881 24.1067 154.415 23.64C153.961 23.1733 153.601 22.62 153.335 21.98C153.068 21.3267 152.935 20.6333 152.935 19.9C152.935 19.1667 153.068 18.48 153.335 17.84C153.601 17.2 153.961 16.6467 154.415 16.18C154.881 15.7133 155.435 15.3467 156.075 15.08C156.715 14.8 157.395 14.66 158.115 14.66C158.675 14.66 159.215 14.7467 159.735 14.92C160.255 15.0933 160.735 15.34 161.175 15.66V11L163.175 10.56V25H161.195ZM154.895 19.88C154.895 20.88 155.228 21.72 155.895 22.4C156.561 23.08 157.381 23.42 158.355 23.42C158.928 23.42 159.455 23.3133 159.935 23.1C160.428 22.8867 160.841 22.5867 161.175 22.2V17.58C160.841 17.2067 160.428 16.9133 159.935 16.7C159.441 16.4867 158.915 16.38 158.355 16.38C157.381 16.38 156.561 16.7133 155.895 17.38C155.228 18.0467 154.895 18.88 154.895 19.88Z" fill="white"/>
<defs>
<filter id="filter0_d" x="0" y="0" width="226.077" height="43" filterUnits="userSpaceOnUse" color-interpolation-filters="sRGB">
<feFlood flood-opacity="0" result="BackgroundImageFix"/>
<feColorMatrix in="SourceAlpha" type="matrix" values="0 0 0 0 0 0 0 0 0 0 0 0 0 0 0 0 0 0 127 0"/>
<feOffset dy="4"/>
<feGaussianBlur stdDeviation="2"/>
<feColorMatrix type="matrix" values="0 0 0 0 0 0 0 0 0 0 0 0 0 0 0 0 0 0 0.25 0"/>
<feBlend mode="normal" in2="BackgroundImageFix" result="effect1_dropShadow"/>
<feBlend mode="normal" in="SourceGraphic" in2="effect1_dropShadow" result="shape"/>
</filter>
</defs>
</svg>
