<svg width="227" height="43" viewBox="0 0 227 43" fill="none" xmlns="http://www.w3.org/2000/svg">
<g filter="url(#filter0_d)">
<rect x="4" width="218.077" height="35" rx="13" fill="#FF655B"/>
</g>
<path d="M63.4199 25V11H65.5199V25H63.4199ZM68.1409 25V14.82H70.1409V15.84C70.5409 15.44 70.9942 15.14 71.5009 14.94C72.0209 14.7267 72.5875 14.62 73.2009 14.62C74.3609 14.62 75.3142 14.9933 76.0609 15.74C76.8075 16.4733 77.1809 17.4267 77.1809 18.6V25H75.1809V18.94C75.1809 18.14 74.9475 17.5133 74.4809 17.06C74.0275 16.5933 73.4209 16.36 72.6609 16.36C72.1275 16.36 71.6409 16.4733 71.2009 16.7C70.7742 16.9267 70.4209 17.2533 70.1409 17.68V25H68.1409ZM83.9082 25V11H90.3882C91.7482 11 92.8482 11.3933 93.6882 12.18C94.5416 12.9533 94.9682 13.96 94.9682 15.2C94.9682 16.4267 94.5416 17.4267 93.6882 18.2C92.8349 18.9733 91.7349 19.36 90.3882 19.36H86.0082V25H83.9082ZM90.1682 12.84H86.0082V17.58H90.1682C90.9816 17.58 91.6282 17.3667 92.1082 16.94C92.6016 16.5 92.8482 15.92 92.8482 15.2C92.8482 14.48 92.6016 13.9067 92.1082 13.48C91.6282 13.0533 90.9816 12.84 90.1682 12.84ZM96.8909 25V14.82H98.8909V16.12C99.1975 15.6267 99.5909 15.2533 100.071 15C100.551 14.7333 101.091 14.6 101.691 14.6C101.904 14.6 102.091 14.6133 102.251 14.64C102.411 14.6667 102.564 14.7067 102.711 14.76V16.56C102.524 16.4933 102.331 16.44 102.131 16.4C101.931 16.36 101.731 16.34 101.531 16.34C100.944 16.34 100.418 16.5 99.9509 16.82C99.4975 17.1267 99.1442 17.5867 98.8909 18.2V25H96.8909ZM103.228 19.9C103.228 19.1667 103.361 18.48 103.628 17.84C103.908 17.1867 104.288 16.6267 104.768 16.16C105.248 15.68 105.808 15.3067 106.448 15.04C107.101 14.76 107.794 14.62 108.528 14.62C109.261 14.62 109.948 14.76 110.588 15.04C111.241 15.3067 111.801 15.68 112.268 16.16C112.748 16.6267 113.121 17.1867 113.388 17.84C113.668 18.48 113.808 19.1667 113.808 19.9C113.808 20.6467 113.668 21.3467 113.388 22C113.121 22.64 112.748 23.2 112.268 23.68C111.801 24.1467 111.241 24.52 110.588 24.8C109.948 25.0667 109.261 25.2 108.528 25.2C107.794 25.2 107.101 25.0667 106.448 24.8C105.808 24.52 105.248 24.1467 104.768 23.68C104.288 23.2 103.908 22.64 103.628 22C103.361 21.3467 103.228 20.6467 103.228 19.9ZM108.528 23.44C109.448 23.44 110.228 23.1 110.868 22.42C111.521 21.7267 111.848 20.8867 111.848 19.9C111.848 18.9133 111.521 18.08 110.868 17.4C110.228 16.72 109.448 16.38 108.528 16.38C107.608 16.38 106.821 16.72 106.168 17.4C105.514 18.08 105.188 18.9133 105.188 19.9C105.188 20.8867 105.508 21.7267 106.148 22.42C106.801 23.1 107.594 23.44 108.528 23.44ZM120.399 25.08C119.692 25.08 119.025 24.9467 118.399 24.68C117.772 24.4 117.225 24.0267 116.759 23.56C116.305 23.0933 115.945 22.54 115.679 21.9C115.412 21.26 115.279 20.58 115.279 19.86C115.279 19.14 115.412 18.46 115.679 17.82C115.945 17.18 116.305 16.6267 116.759 16.16C117.225 15.6933 117.772 15.3267 118.399 15.06C119.039 14.78 119.719 14.64 120.439 14.64C120.985 14.64 121.512 14.7267 122.019 14.9C122.539 15.0733 123.019 15.3267 123.459 15.66V14.82H125.439V25.14C125.439 26.46 125.032 27.4733 124.219 28.18C123.419 28.9 122.272 29.26 120.779 29.26C120.045 29.26 119.319 29.1733 118.599 29C117.892 28.8267 117.252 28.58 116.679 28.26L117.459 26.7C118.032 26.9933 118.585 27.2133 119.119 27.36C119.652 27.5067 120.185 27.58 120.719 27.58C121.599 27.58 122.272 27.3733 122.739 26.96C123.205 26.5467 123.439 25.94 123.439 25.14V24C123.012 24.3467 122.539 24.6133 122.019 24.8C121.499 24.9867 120.959 25.08 120.399 25.08ZM117.239 19.86C117.239 20.8333 117.565 21.66 118.219 22.34C118.872 23.0067 119.679 23.34 120.639 23.34C121.212 23.34 121.739 23.24 122.219 23.04C122.699 22.8267 123.105 22.5333 123.439 22.16V17.56C123.119 17.1867 122.712 16.9 122.219 16.7C121.739 16.4867 121.212 16.38 120.639 16.38C119.679 16.38 118.872 16.72 118.219 17.4C117.565 18.0667 117.239 18.8867 117.239 19.86ZM127.789 25V14.82H129.789V16.12C130.096 15.6267 130.489 15.2533 130.969 15C131.449 14.7333 131.989 14.6 132.589 14.6C132.803 14.6 132.989 14.6133 133.149 14.64C133.309 14.6667 133.463 14.7067 133.609 14.76V16.56C133.423 16.4933 133.229 16.44 133.029 16.4C132.829 16.36 132.629 16.34 132.429 16.34C131.843 16.34 131.316 16.5 130.849 16.82C130.396 17.1267 130.043 17.5867 129.789 18.2V25H127.789ZM143.406 23.84C142.82 24.2933 142.206 24.6333 141.566 24.86C140.926 25.0733 140.226 25.18 139.466 25.18C138.72 25.18 138.02 25.0467 137.366 24.78C136.713 24.5 136.146 24.1267 135.666 23.66C135.186 23.1933 134.806 22.64 134.526 22C134.26 21.3467 134.126 20.6467 134.126 19.9C134.126 19.1667 134.26 18.48 134.526 17.84C134.793 17.2 135.153 16.6467 135.606 16.18C136.06 15.7133 136.6 15.3467 137.226 15.08C137.853 14.8 138.52 14.66 139.226 14.66C139.92 14.66 140.566 14.8 141.166 15.08C141.78 15.3467 142.3 15.72 142.726 16.2C143.166 16.6667 143.513 17.2267 143.766 17.88C144.02 18.5333 144.146 19.2333 144.146 19.98V20.56H136.106C136.24 21.4 136.626 22.1 137.266 22.66C137.906 23.2067 138.666 23.48 139.546 23.48C140.04 23.48 140.513 23.4 140.966 23.24C141.42 23.08 141.806 22.86 142.126 22.58L143.406 23.84ZM139.186 16.34C138.426 16.34 137.76 16.5933 137.186 17.1C136.626 17.6067 136.273 18.26 136.126 19.06H142.166C142.02 18.2867 141.666 17.64 141.106 17.12C140.56 16.6 139.92 16.34 139.186 16.34ZM145.189 23.68L146.269 22.36C146.802 22.7733 147.342 23.0933 147.889 23.32C148.449 23.5333 149.015 23.64 149.589 23.64C150.309 23.64 150.895 23.5 151.349 23.22C151.802 22.94 152.029 22.5733 152.029 22.12C152.029 21.76 151.895 21.4733 151.629 21.26C151.362 21.0467 150.949 20.9 150.389 20.82L148.549 20.56C147.549 20.4133 146.789 20.1067 146.269 19.64C145.762 19.16 145.509 18.5267 145.509 17.74C145.509 16.82 145.875 16.08 146.609 15.52C147.342 14.9467 148.302 14.66 149.489 14.66C150.235 14.66 150.942 14.7667 151.609 14.98C152.289 15.1933 152.949 15.52 153.589 15.96L152.569 17.28C152.009 16.9067 151.462 16.64 150.929 16.48C150.409 16.3067 149.882 16.22 149.349 16.22C148.735 16.22 148.242 16.3467 147.869 16.6C147.495 16.8533 147.309 17.1867 147.309 17.6C147.309 17.9733 147.435 18.26 147.689 18.46C147.955 18.6467 148.389 18.7867 148.989 18.88L150.829 19.14C151.829 19.2867 152.589 19.6 153.109 20.08C153.642 20.56 153.909 21.1933 153.909 21.98C153.909 22.4333 153.795 22.86 153.569 23.26C153.355 23.6467 153.055 23.98 152.669 24.26C152.295 24.54 151.849 24.7667 151.329 24.94C150.809 25.1 150.249 25.18 149.649 25.18C148.769 25.18 147.942 25.0533 147.169 24.8C146.409 24.5467 145.749 24.1733 145.189 23.68ZM154.603 23.68L155.683 22.36C156.216 22.7733 156.756 23.0933 157.303 23.32C157.863 23.5333 158.429 23.64 159.003 23.64C159.723 23.64 160.309 23.5 160.763 23.22C161.216 22.94 161.443 22.5733 161.443 22.12C161.443 21.76 161.309 21.4733 161.043 21.26C160.776 21.0467 160.363 20.9 159.803 20.82L157.963 20.56C156.963 20.4133 156.203 20.1067 155.683 19.64C155.176 19.16 154.923 18.5267 154.923 17.74C154.923 16.82 155.289 16.08 156.023 15.52C156.756 14.9467 157.716 14.66 158.903 14.66C159.649 14.66 160.356 14.7667 161.023 14.98C161.703 15.1933 162.363 15.52 163.003 15.96L161.983 17.28C161.423 16.9067 160.876 16.64 160.343 16.48C159.823 16.3067 159.296 16.22 158.763 16.22C158.149 16.22 157.656 16.3467 157.283 16.6C156.909 16.8533 156.723 17.1867 156.723 17.6C156.723 17.9733 156.849 18.26 157.103 18.46C157.369 18.6467 157.803 18.7867 158.403 18.88L160.243 19.14C161.243 19.2867 162.003 19.6 162.523 20.08C163.056 20.56 163.323 21.1933 163.323 21.98C163.323 22.4333 163.209 22.86 162.983 23.26C162.769 23.6467 162.469 23.98 162.083 24.26C161.709 24.54 161.263 24.7667 160.743 24.94C160.223 25.1 159.663 25.18 159.063 25.18C158.183 25.18 157.356 25.0533 156.583 24.8C155.823 24.5467 155.163 24.1733 154.603 23.68Z" fill="white"/>
<defs>
<filter id="filter0_d" x="0" y="0" width="226.077" height="43" filterUnits="userSpaceOnUse" color-interpolation-filters="sRGB">
<feFlood flood-opacity="0" result="BackgroundImageFix"/>
<feColorMatrix in="SourceAlpha" type="matrix" values="0 0 0 0 0 0 0 0 0 0 0 0 0 0 0 0 0 0 127 0"/>
<feOffset dy="4"/>
<feGaussianBlur stdDeviation="2"/>
<feColorMatrix type="matrix" values="0 0 0 0 0 0 0 0 0 0 0 0 0 0 0 0 0 0 0.25 0"/>
<feBlend mode="normal" in2="BackgroundImageFix" result="effect1_dropShadow"/>
<feBlend mode="normal" in="SourceGraphic" in2="effect1_dropShadow" result="shape"/>
</filter>
</defs>
</svg>
