<svg width="227" height="43" viewBox="0 0 227 43" fill="none" xmlns="http://www.w3.org/2000/svg">
<g filter="url(#filter0_d)">
<rect x="4" width="218.077" height="35" rx="13" fill="white"/>
</g>
<path d="M90.1599 22.68L91.4399 21.2C92.1999 21.9333 92.9733 22.4867 93.7599 22.86C94.5599 23.22 95.3933 23.4 96.2599 23.4C97.2599 23.4 98.0733 23.18 98.6999 22.74C99.3399 22.3 99.6599 21.74 99.6599 21.06C99.6599 20.4467 99.4399 19.9733 98.9999 19.64C98.5599 19.2933 97.8333 19.0333 96.8199 18.86L94.4799 18.48C93.1999 18.2667 92.2399 17.86 91.5999 17.26C90.9733 16.6467 90.6599 15.84 90.6599 14.84C90.6599 13.6267 91.1333 12.6533 92.0799 11.92C93.0266 11.1867 94.2733 10.82 95.8199 10.82C96.8199 10.82 97.8133 10.9867 98.7999 11.32C99.7866 11.64 100.673 12.1067 101.46 12.72L100.3 14.32C99.5399 13.7467 98.7799 13.32 98.0199 13.04C97.2599 12.7467 96.4933 12.6 95.7199 12.6C94.8133 12.6 94.0799 12.7933 93.5199 13.18C92.9599 13.5667 92.6799 14.0667 92.6799 14.68C92.6799 15.2533 92.8733 15.6933 93.2599 16C93.6466 16.2933 94.2866 16.5133 95.1799 16.66L97.4399 17.02C98.9066 17.26 99.9866 17.7 100.68 18.34C101.387 18.9667 101.74 19.82 101.74 20.9C101.74 21.54 101.607 22.1267 101.34 22.66C101.073 23.1933 100.693 23.6467 100.2 24.02C99.7199 24.3933 99.1333 24.6867 98.4399 24.9C97.7466 25.1 96.9866 25.2 96.1599 25.2C95.0399 25.2 93.9599 24.98 92.9199 24.54C91.8799 24.1 90.9599 23.48 90.1599 22.68ZM104.375 22.48V16.5H102.215V14.82H104.375V12.22L106.355 11.74V14.82H109.355V16.5H106.355V22.02C106.355 22.54 106.468 22.9067 106.695 23.12C106.935 23.3333 107.322 23.44 107.855 23.44C108.135 23.44 108.382 23.4267 108.595 23.4C108.822 23.36 109.062 23.2933 109.315 23.2V24.88C109.048 24.9733 108.735 25.0467 108.375 25.1C108.028 25.1533 107.708 25.18 107.415 25.18C106.428 25.18 105.675 24.9533 105.155 24.5C104.635 24.0333 104.375 23.36 104.375 22.48ZM114.048 25.18C112.942 25.18 112.042 24.8933 111.348 24.32C110.655 23.7467 110.308 23 110.308 22.08C110.308 21.12 110.675 20.3667 111.408 19.82C112.142 19.26 113.148 18.98 114.428 18.98C114.922 18.98 115.402 19.0333 115.868 19.14C116.335 19.2333 116.782 19.3667 117.208 19.54V18.46C117.208 17.74 116.995 17.2 116.568 16.84C116.142 16.48 115.528 16.3 114.728 16.3C114.262 16.3 113.775 16.3733 113.268 16.52C112.762 16.6533 112.195 16.8667 111.568 17.16L110.828 15.66C111.588 15.3 112.308 15.04 112.988 14.88C113.668 14.7067 114.342 14.62 115.008 14.62C116.328 14.62 117.348 14.94 118.068 15.58C118.802 16.2067 119.168 17.1 119.168 18.26V25H117.208V24.12C116.755 24.48 116.268 24.7467 115.748 24.92C115.228 25.0933 114.662 25.18 114.048 25.18ZM112.228 22.04C112.228 22.5333 112.435 22.9333 112.848 23.24C113.275 23.5467 113.828 23.7 114.508 23.7C115.042 23.7 115.535 23.62 115.988 23.46C116.442 23.3 116.848 23.06 117.208 22.74V20.98C116.822 20.7667 116.415 20.6133 115.988 20.52C115.562 20.4133 115.095 20.36 114.588 20.36C113.868 20.36 113.295 20.5133 112.868 20.82C112.442 21.1267 112.228 21.5333 112.228 22.04ZM121.473 25V14.82H123.473V16.12C123.78 15.6267 124.173 15.2533 124.653 15C125.133 14.7333 125.673 14.6 126.273 14.6C126.486 14.6 126.673 14.6133 126.833 14.64C126.993 14.6667 127.146 14.7067 127.293 14.76V16.56C127.106 16.4933 126.913 16.44 126.713 16.4C126.513 16.36 126.313 16.34 126.113 16.34C125.526 16.34 125 16.5 124.533 16.82C124.08 17.1267 123.726 17.5867 123.473 18.2V25H121.473ZM130.293 22.48V16.5H128.133V14.82H130.293V12.22L132.273 11.74V14.82H135.273V16.5H132.273V22.02C132.273 22.54 132.386 22.9067 132.613 23.12C132.853 23.3333 133.24 23.44 133.773 23.44C134.053 23.44 134.3 23.4267 134.513 23.4C134.74 23.36 134.98 23.2933 135.233 23.2V24.88C134.966 24.9733 134.653 25.0467 134.293 25.1C133.946 25.1533 133.626 25.18 133.333 25.18C132.346 25.18 131.593 24.9533 131.073 24.5C130.553 24.0333 130.293 23.36 130.293 22.48Z" fill="#676565"/>
<defs>
<filter id="filter0_d" x="0" y="0" width="226.077" height="43" filterUnits="userSpaceOnUse" color-interpolation-filters="sRGB">
<feFlood flood-opacity="0" result="BackgroundImageFix"/>
<feColorMatrix in="SourceAlpha" type="matrix" values="0 0 0 0 0 0 0 0 0 0 0 0 0 0 0 0 0 0 127 0"/>
<feOffset dy="4"/>
<feGaussianBlur stdDeviation="2"/>
<feColorMatrix type="matrix" values="0 0 0 0 0 0 0 0 0 0 0 0 0 0 0 0 0 0 0.25 0"/>
<feBlend mode="normal" in2="BackgroundImageFix" result="effect1_dropShadow"/>
<feBlend mode="normal" in="SourceGraphic" in2="effect1_dropShadow" result="shape"/>
</filter>
</defs>
</svg>
